G04 #@! TF.GenerationSoftware,KiCad,Pcbnew,10.0.0*
G04 #@! TF.CreationDate,2026-04-10T15:11:57+08:00*
G04 #@! TF.ProjectId,pcb,7063622e-6b69-4636-9164-5f7063625858,rev?*
G04 #@! TF.SameCoordinates,Original*
G04 #@! TF.FileFunction,Copper,L2,Bot*
G04 #@! TF.FilePolarity,Positive*
%FSLAX46Y46*%
G04 Gerber Fmt 4.6, Leading zero omitted, Abs format (unit mm)*
G04 Created by KiCad (PCBNEW 10.0.0) date 2026-04-10 15:11:57*
%MOMM*%
%LPD*%
G01*
G04 APERTURE LIST*
G04 #@! TA.AperFunction,ComponentPad*
%ADD10C,1.600000*%
G04 #@! TD*
G04 #@! TA.AperFunction,ComponentPad*
%ADD11R,1.700000X1.700000*%
G04 #@! TD*
G04 #@! TA.AperFunction,ComponentPad*
%ADD12C,1.700000*%
G04 #@! TD*
G04 APERTURE END LIST*
D10*
X48768000Y-38608000D03*
X38608000Y-38608000D03*
D11*
X39116000Y-29972000D03*
D12*
X36576000Y-29972000D03*
X34036000Y-29972000D03*
X31496000Y-29972000D03*
X28956000Y-29972000D03*
X26416000Y-29972000D03*
X23876000Y-29972000D03*
X21336000Y-29972000D03*
X18796000Y-29972000D03*
D10*
X54065898Y-17997898D03*
X61250101Y-25182103D03*
D11*
X39116000Y-24892000D03*
D12*
X36576000Y-24892000D03*
X34036000Y-24892000D03*
X31496000Y-24892000D03*
X28956000Y-24892000D03*
X26416000Y-24892000D03*
X23876000Y-24892000D03*
X21336000Y-24892000D03*
X18796000Y-24892000D03*
D10*
X43352592Y-23876000D03*
X50536795Y-31060205D03*
X51308000Y-41656000D03*
X41148000Y-41656000D03*
X65532000Y-38608000D03*
X55372000Y-38608000D03*
D11*
X70612000Y-29464000D03*
D12*
X70612000Y-32004000D03*
X70612000Y-34544000D03*
X70612000Y-37084000D03*
D10*
X56859898Y-16473898D03*
X64044103Y-23658101D03*
D11*
X70612000Y-17780000D03*
D12*
X70612000Y-20320000D03*
X70612000Y-22860000D03*
X70612000Y-25400000D03*
D10*
X37910196Y-43373524D03*
X30725992Y-36189320D03*
X24420103Y-43724103D03*
X17235898Y-36539898D03*
X28992103Y-43724102D03*
X21807898Y-36539897D03*
X55118000Y-35560000D03*
X44958000Y-35560000D03*
D11*
X39116000Y-27432000D03*
D12*
X36576000Y-27432000D03*
X34036000Y-27432000D03*
X31496000Y-27432000D03*
D11*
X39116000Y-32512000D03*
D12*
X36576000Y-32512000D03*
X34036000Y-32512000D03*
X31496000Y-32512000D03*
X28956000Y-32512000D03*
X26416000Y-32512000D03*
X23876000Y-32512000D03*
X21336000Y-32512000D03*
X18796000Y-32512000D03*
D10*
X33564103Y-43724102D03*
X26379898Y-36539897D03*
D11*
X45212000Y-47244000D03*
D12*
X47752000Y-47244000D03*
X50292000Y-47244000D03*
X52832000Y-47244000D03*
X55372000Y-47244000D03*
X57912000Y-47244000D03*
X60452000Y-47244000D03*
X62992000Y-47244000D03*
X65532000Y-47244000D03*
D10*
X51017898Y-19521898D03*
X58202101Y-26706103D03*
X47969898Y-23876000D03*
X55154101Y-31060205D03*
G04 #@! TA.AperFunction,Conductor*
G36*
X55657888Y-15520207D02*
G01*
X55727129Y-15575426D01*
X55765556Y-15655218D01*
X55765556Y-15743782D01*
X55748855Y-15789844D01*
X55654683Y-15974666D01*
X55654675Y-15974685D01*
X55591421Y-16169361D01*
X55591421Y-16169364D01*
X55559398Y-16371546D01*
X55559398Y-16576250D01*
X55578586Y-16697398D01*
X55591420Y-16778427D01*
X55591421Y-16778434D01*
X55654675Y-16973110D01*
X55654683Y-16973129D01*
X55747604Y-17155497D01*
X55747610Y-17155507D01*
X55747611Y-17155508D01*
X55867932Y-17321117D01*
X56012679Y-17465864D01*
X56057854Y-17498685D01*
X56178288Y-17586185D01*
X56178298Y-17586191D01*
X56360666Y-17679112D01*
X56360673Y-17679114D01*
X56360679Y-17679118D01*
X56555364Y-17742375D01*
X56757546Y-17774398D01*
X56757547Y-17774398D01*
X56962249Y-17774398D01*
X56962250Y-17774398D01*
X57164432Y-17742375D01*
X57359117Y-17679118D01*
X57359129Y-17679112D01*
X57541497Y-17586191D01*
X57541501Y-17586188D01*
X57541508Y-17586185D01*
X57707117Y-17465864D01*
X57851864Y-17321117D01*
X57972185Y-17155508D01*
X57974645Y-17150681D01*
X58065112Y-16973129D01*
X58065112Y-16973127D01*
X58065118Y-16973117D01*
X58094682Y-16882127D01*
X69261500Y-16882127D01*
X69261500Y-16882128D01*
X69261500Y-16882132D01*
X69261500Y-18677876D01*
X69267908Y-18737481D01*
X69318203Y-18872329D01*
X69318207Y-18872335D01*
X69404453Y-18987546D01*
X69490219Y-19051750D01*
X69519669Y-19073796D01*
X69541738Y-19082027D01*
X69615750Y-19130665D01*
X69661329Y-19206600D01*
X69669448Y-19294790D01*
X69638498Y-19377769D01*
X69612911Y-19409192D01*
X69581893Y-19440210D01*
X69456947Y-19612187D01*
X69360445Y-19801581D01*
X69360441Y-19801592D01*
X69294756Y-20003748D01*
X69294752Y-20003765D01*
X69261500Y-20213713D01*
X69261500Y-20426286D01*
X69294752Y-20636234D01*
X69294756Y-20636251D01*
X69360441Y-20838407D01*
X69360445Y-20838418D01*
X69453590Y-21021223D01*
X69456949Y-21027816D01*
X69522523Y-21118071D01*
X69581893Y-21199789D01*
X69732206Y-21350102D01*
X69732213Y-21350108D01*
X69840807Y-21429006D01*
X69899076Y-21495700D01*
X69922638Y-21581072D01*
X69906824Y-21668212D01*
X69854768Y-21739861D01*
X69840807Y-21750994D01*
X69732213Y-21829891D01*
X69732206Y-21829897D01*
X69581893Y-21980210D01*
X69456947Y-22152187D01*
X69360445Y-22341581D01*
X69360441Y-22341592D01*
X69294756Y-22543748D01*
X69294752Y-22543765D01*
X69261500Y-22753713D01*
X69261500Y-22966286D01*
X69294752Y-23176234D01*
X69294756Y-23176251D01*
X69360441Y-23378407D01*
X69360445Y-23378418D01*
X69443540Y-23541500D01*
X69456949Y-23567816D01*
X69509714Y-23640441D01*
X69581893Y-23739789D01*
X69732206Y-23890102D01*
X69732213Y-23890108D01*
X69840807Y-23969006D01*
X69899076Y-24035700D01*
X69922638Y-24121072D01*
X69906824Y-24208212D01*
X69854768Y-24279861D01*
X69840807Y-24290994D01*
X69732213Y-24369891D01*
X69732206Y-24369897D01*
X69581893Y-24520210D01*
X69487548Y-24650068D01*
X69463702Y-24682890D01*
X69456947Y-24692187D01*
X69360445Y-24881581D01*
X69360441Y-24881592D01*
X69294756Y-25083748D01*
X69294752Y-25083765D01*
X69261500Y-25293713D01*
X69261500Y-25506286D01*
X69294752Y-25716234D01*
X69294756Y-25716251D01*
X69360441Y-25918407D01*
X69360445Y-25918418D01*
X69425988Y-26047052D01*
X69456949Y-26107816D01*
X69522523Y-26198071D01*
X69581893Y-26279789D01*
X69732210Y-26430106D01*
X69760391Y-26450580D01*
X69904184Y-26555051D01*
X69995589Y-26601624D01*
X70093581Y-26651554D01*
X70093584Y-26651555D01*
X70093588Y-26651557D01*
X70295757Y-26717246D01*
X70505713Y-26750500D01*
X70718287Y-26750500D01*
X70928243Y-26717246D01*
X71130412Y-26651557D01*
X71319816Y-26555051D01*
X71491792Y-26430104D01*
X71642104Y-26279792D01*
X71767051Y-26107816D01*
X71863557Y-25918412D01*
X71929246Y-25716243D01*
X71962500Y-25506287D01*
X71962500Y-25293713D01*
X71929246Y-25083757D01*
X71863557Y-24881588D01*
X71863555Y-24881584D01*
X71863554Y-24881581D01*
X71806898Y-24770388D01*
X71767051Y-24692184D01*
X71669270Y-24557599D01*
X71642106Y-24520210D01*
X71491793Y-24369897D01*
X71491789Y-24369894D01*
X71491785Y-24369891D01*
X71383192Y-24290994D01*
X71324923Y-24224301D01*
X71301361Y-24138929D01*
X71317175Y-24051789D01*
X71369230Y-23980139D01*
X71383193Y-23969005D01*
X71391961Y-23962635D01*
X71491792Y-23890104D01*
X71642104Y-23739792D01*
X71767051Y-23567816D01*
X71863557Y-23378412D01*
X71929246Y-23176243D01*
X71962500Y-22966287D01*
X71962500Y-22753713D01*
X71929246Y-22543757D01*
X71863557Y-22341588D01*
X71863555Y-22341584D01*
X71863554Y-22341581D01*
X71813624Y-22243589D01*
X71767051Y-22152184D01*
X71681685Y-22034688D01*
X71642106Y-21980210D01*
X71491793Y-21829897D01*
X71491789Y-21829894D01*
X71383193Y-21750995D01*
X71324923Y-21684301D01*
X71301361Y-21598929D01*
X71317175Y-21511789D01*
X71369230Y-21440139D01*
X71383193Y-21429005D01*
X71491792Y-21350104D01*
X71642104Y-21199792D01*
X71767051Y-21027816D01*
X71863557Y-20838412D01*
X71929246Y-20636243D01*
X71962500Y-20426287D01*
X71962500Y-20213713D01*
X71929246Y-20003757D01*
X71863557Y-19801588D01*
X71863555Y-19801584D01*
X71863554Y-19801581D01*
X71813624Y-19703589D01*
X71767051Y-19612184D01*
X71681685Y-19494688D01*
X71642106Y-19440210D01*
X71611090Y-19409194D01*
X71563971Y-19334206D01*
X71554055Y-19246199D01*
X71583306Y-19162606D01*
X71645930Y-19099982D01*
X71682252Y-19082030D01*
X71704331Y-19073796D01*
X71819546Y-18987546D01*
X71905796Y-18872331D01*
X71956091Y-18737483D01*
X71962500Y-18677873D01*
X71962499Y-16882128D01*
X71962499Y-16882127D01*
X71962499Y-16882123D01*
X71956091Y-16822518D01*
X71953408Y-16815323D01*
X71905796Y-16687669D01*
X71822388Y-16576250D01*
X71819546Y-16572453D01*
X71704335Y-16486207D01*
X71704331Y-16486204D01*
X71569483Y-16435909D01*
X71509873Y-16429500D01*
X71509867Y-16429500D01*
X69714123Y-16429500D01*
X69654518Y-16435908D01*
X69519670Y-16486203D01*
X69519664Y-16486207D01*
X69404453Y-16572453D01*
X69318207Y-16687664D01*
X69318204Y-16687669D01*
X69267909Y-16822517D01*
X69261500Y-16882127D01*
X58094682Y-16882127D01*
X58128375Y-16778432D01*
X58160398Y-16576250D01*
X58160398Y-16371546D01*
X58128375Y-16169364D01*
X58065118Y-15974679D01*
X58065114Y-15974673D01*
X58065112Y-15974666D01*
X57970941Y-15789844D01*
X57949301Y-15703965D01*
X57967066Y-15617201D01*
X58020717Y-15546738D01*
X58099628Y-15506532D01*
X58148251Y-15500500D01*
X73934108Y-15500500D01*
X73988823Y-15500500D01*
X74011101Y-15501751D01*
X74041652Y-15505192D01*
X74088870Y-15510512D01*
X74132305Y-15520425D01*
X74195570Y-15542563D01*
X74235702Y-15561890D01*
X74292453Y-15597549D01*
X74327287Y-15625329D01*
X74374670Y-15672712D01*
X74402451Y-15707547D01*
X74438107Y-15764293D01*
X74457437Y-15804433D01*
X74479571Y-15867684D01*
X74489487Y-15911129D01*
X74498249Y-15988895D01*
X74499500Y-16011176D01*
X74499500Y-48988823D01*
X74498249Y-49011104D01*
X74489487Y-49088870D01*
X74479571Y-49132315D01*
X74457440Y-49195561D01*
X74438105Y-49235710D01*
X74402454Y-49292448D01*
X74374670Y-49327287D01*
X74327287Y-49374670D01*
X74292448Y-49402454D01*
X74235710Y-49438105D01*
X74195562Y-49457439D01*
X74132315Y-49479571D01*
X74088870Y-49489487D01*
X74027146Y-49496441D01*
X74011102Y-49498249D01*
X73988823Y-49499500D01*
X16011177Y-49499500D01*
X15988897Y-49498249D01*
X15911130Y-49489487D01*
X15867687Y-49479571D01*
X15804433Y-49457437D01*
X15764293Y-49438107D01*
X15707547Y-49402451D01*
X15672712Y-49374670D01*
X15625329Y-49327287D01*
X15597549Y-49292453D01*
X15561890Y-49235702D01*
X15542563Y-49195570D01*
X15520425Y-49132305D01*
X15510512Y-49088867D01*
X15501751Y-49011101D01*
X15500500Y-48988823D01*
X15500500Y-46346177D01*
X43862000Y-46346177D01*
X43862000Y-46994000D01*
X44778988Y-46994000D01*
X44746075Y-47051007D01*
X44712000Y-47178174D01*
X44712000Y-47309826D01*
X44746075Y-47436993D01*
X44778988Y-47494000D01*
X43862000Y-47494000D01*
X43862000Y-48141822D01*
X43868401Y-48201372D01*
X43868403Y-48201381D01*
X43918646Y-48336087D01*
X43918647Y-48336090D01*
X44004810Y-48451189D01*
X44119909Y-48537352D01*
X44119912Y-48537353D01*
X44254618Y-48587596D01*
X44254627Y-48587598D01*
X44314177Y-48594000D01*
X44962000Y-48594000D01*
X44962000Y-47677012D01*
X45019007Y-47709925D01*
X45146174Y-47744000D01*
X45277826Y-47744000D01*
X45404993Y-47709925D01*
X45462000Y-47677012D01*
X45462000Y-48594000D01*
X46109823Y-48594000D01*
X46169372Y-48587598D01*
X46169381Y-48587596D01*
X46304087Y-48537353D01*
X46304090Y-48537352D01*
X46419189Y-48451189D01*
X46505352Y-48336090D01*
X46505353Y-48336087D01*
X46513639Y-48313874D01*
X46562277Y-48239861D01*
X46638211Y-48194282D01*
X46726401Y-48186163D01*
X46809381Y-48217112D01*
X46840806Y-48242702D01*
X46872210Y-48274106D01*
X46926688Y-48313685D01*
X47044184Y-48399051D01*
X47135589Y-48445624D01*
X47233581Y-48495554D01*
X47233584Y-48495555D01*
X47233588Y-48495557D01*
X47435757Y-48561246D01*
X47645713Y-48594500D01*
X47858287Y-48594500D01*
X48068243Y-48561246D01*
X48270412Y-48495557D01*
X48459816Y-48399051D01*
X48631792Y-48274104D01*
X48782104Y-48123792D01*
X48861005Y-48015192D01*
X48927699Y-47956923D01*
X49013071Y-47933361D01*
X49100211Y-47949175D01*
X49171861Y-48001230D01*
X49182995Y-48015193D01*
X49261894Y-48123789D01*
X49261897Y-48123793D01*
X49412210Y-48274106D01*
X49466688Y-48313685D01*
X49584184Y-48399051D01*
X49675589Y-48445624D01*
X49773581Y-48495554D01*
X49773584Y-48495555D01*
X49773588Y-48495557D01*
X49975757Y-48561246D01*
X50185713Y-48594500D01*
X50398287Y-48594500D01*
X50608243Y-48561246D01*
X50810412Y-48495557D01*
X50999816Y-48399051D01*
X51171792Y-48274104D01*
X51322104Y-48123792D01*
X51401005Y-48015192D01*
X51467699Y-47956923D01*
X51553071Y-47933361D01*
X51640211Y-47949175D01*
X51711861Y-48001230D01*
X51722995Y-48015193D01*
X51801894Y-48123789D01*
X51801897Y-48123793D01*
X51952210Y-48274106D01*
X52006688Y-48313685D01*
X52124184Y-48399051D01*
X52215589Y-48445624D01*
X52313581Y-48495554D01*
X52313584Y-48495555D01*
X52313588Y-48495557D01*
X52515757Y-48561246D01*
X52725713Y-48594500D01*
X52938287Y-48594500D01*
X53148243Y-48561246D01*
X53350412Y-48495557D01*
X53539816Y-48399051D01*
X53711792Y-48274104D01*
X53862104Y-48123792D01*
X53941005Y-48015192D01*
X54007699Y-47956923D01*
X54093071Y-47933361D01*
X54180211Y-47949175D01*
X54251861Y-48001230D01*
X54262995Y-48015193D01*
X54341894Y-48123789D01*
X54341897Y-48123793D01*
X54492210Y-48274106D01*
X54546688Y-48313685D01*
X54664184Y-48399051D01*
X54755589Y-48445624D01*
X54853581Y-48495554D01*
X54853584Y-48495555D01*
X54853588Y-48495557D01*
X55055757Y-48561246D01*
X55265713Y-48594500D01*
X55478287Y-48594500D01*
X55688243Y-48561246D01*
X55890412Y-48495557D01*
X56079816Y-48399051D01*
X56251792Y-48274104D01*
X56402104Y-48123792D01*
X56481005Y-48015192D01*
X56547699Y-47956923D01*
X56633071Y-47933361D01*
X56720211Y-47949175D01*
X56791861Y-48001230D01*
X56802995Y-48015193D01*
X56881894Y-48123789D01*
X56881897Y-48123793D01*
X57032210Y-48274106D01*
X57086688Y-48313685D01*
X57204184Y-48399051D01*
X57295589Y-48445624D01*
X57393581Y-48495554D01*
X57393584Y-48495555D01*
X57393588Y-48495557D01*
X57595757Y-48561246D01*
X57805713Y-48594500D01*
X58018287Y-48594500D01*
X58228243Y-48561246D01*
X58430412Y-48495557D01*
X58619816Y-48399051D01*
X58791792Y-48274104D01*
X58942104Y-48123792D01*
X59021005Y-48015192D01*
X59087699Y-47956923D01*
X59173071Y-47933361D01*
X59260211Y-47949175D01*
X59331861Y-48001230D01*
X59342995Y-48015193D01*
X59421894Y-48123789D01*
X59421897Y-48123793D01*
X59572210Y-48274106D01*
X59626688Y-48313685D01*
X59744184Y-48399051D01*
X59835589Y-48445624D01*
X59933581Y-48495554D01*
X59933584Y-48495555D01*
X59933588Y-48495557D01*
X60135757Y-48561246D01*
X60345713Y-48594500D01*
X60558287Y-48594500D01*
X60768243Y-48561246D01*
X60970412Y-48495557D01*
X61159816Y-48399051D01*
X61331792Y-48274104D01*
X61482104Y-48123792D01*
X61561005Y-48015192D01*
X61627699Y-47956923D01*
X61713071Y-47933361D01*
X61800211Y-47949175D01*
X61871861Y-48001230D01*
X61882995Y-48015193D01*
X61961894Y-48123789D01*
X61961897Y-48123793D01*
X62112210Y-48274106D01*
X62166688Y-48313685D01*
X62284184Y-48399051D01*
X62375589Y-48445624D01*
X62473581Y-48495554D01*
X62473584Y-48495555D01*
X62473588Y-48495557D01*
X62675757Y-48561246D01*
X62885713Y-48594500D01*
X63098287Y-48594500D01*
X63308243Y-48561246D01*
X63510412Y-48495557D01*
X63699816Y-48399051D01*
X63871792Y-48274104D01*
X64022104Y-48123792D01*
X64101005Y-48015192D01*
X64167699Y-47956923D01*
X64253071Y-47933361D01*
X64340211Y-47949175D01*
X64411861Y-48001230D01*
X64422995Y-48015193D01*
X64501894Y-48123789D01*
X64501897Y-48123793D01*
X64652210Y-48274106D01*
X64706688Y-48313685D01*
X64824184Y-48399051D01*
X64915589Y-48445624D01*
X65013581Y-48495554D01*
X65013584Y-48495555D01*
X65013588Y-48495557D01*
X65215757Y-48561246D01*
X65425713Y-48594500D01*
X65638287Y-48594500D01*
X65848243Y-48561246D01*
X66050412Y-48495557D01*
X66239816Y-48399051D01*
X66411792Y-48274104D01*
X66562104Y-48123792D01*
X66687051Y-47951816D01*
X66783557Y-47762412D01*
X66849246Y-47560243D01*
X66882500Y-47350287D01*
X66882500Y-47137713D01*
X66849246Y-46927757D01*
X66783557Y-46725588D01*
X66783555Y-46725584D01*
X66783554Y-46725581D01*
X66733624Y-46627589D01*
X66687051Y-46536184D01*
X66562108Y-46364213D01*
X66562106Y-46364210D01*
X66411789Y-46213893D01*
X66326474Y-46151909D01*
X66239816Y-46088949D01*
X66233223Y-46085590D01*
X66050418Y-45992445D01*
X66050407Y-45992441D01*
X65848251Y-45926756D01*
X65848234Y-45926752D01*
X65638287Y-45893500D01*
X65425713Y-45893500D01*
X65215765Y-45926752D01*
X65215748Y-45926756D01*
X65013592Y-45992441D01*
X65013581Y-45992445D01*
X64824187Y-46088947D01*
X64652210Y-46213893D01*
X64501897Y-46364206D01*
X64501891Y-46364213D01*
X64422994Y-46472807D01*
X64356300Y-46531076D01*
X64270928Y-46554638D01*
X64183788Y-46538824D01*
X64112139Y-46486768D01*
X64101006Y-46472807D01*
X64022108Y-46364213D01*
X64022102Y-46364206D01*
X63871789Y-46213893D01*
X63786474Y-46151909D01*
X63699816Y-46088949D01*
X63693223Y-46085590D01*
X63510418Y-45992445D01*
X63510407Y-45992441D01*
X63308251Y-45926756D01*
X63308234Y-45926752D01*
X63098287Y-45893500D01*
X62885713Y-45893500D01*
X62675765Y-45926752D01*
X62675748Y-45926756D01*
X62473592Y-45992441D01*
X62473581Y-45992445D01*
X62284187Y-46088947D01*
X62112210Y-46213893D01*
X61961897Y-46364206D01*
X61961891Y-46364213D01*
X61882994Y-46472807D01*
X61816300Y-46531076D01*
X61730928Y-46554638D01*
X61643788Y-46538824D01*
X61572139Y-46486768D01*
X61561006Y-46472807D01*
X61482108Y-46364213D01*
X61482102Y-46364206D01*
X61331789Y-46213893D01*
X61246474Y-46151909D01*
X61159816Y-46088949D01*
X61153223Y-46085590D01*
X60970418Y-45992445D01*
X60970407Y-45992441D01*
X60768251Y-45926756D01*
X60768234Y-45926752D01*
X60558287Y-45893500D01*
X60345713Y-45893500D01*
X60135765Y-45926752D01*
X60135748Y-45926756D01*
X59933592Y-45992441D01*
X59933581Y-45992445D01*
X59744187Y-46088947D01*
X59572210Y-46213893D01*
X59421897Y-46364206D01*
X59421891Y-46364213D01*
X59342994Y-46472807D01*
X59276300Y-46531076D01*
X59190928Y-46554638D01*
X59103788Y-46538824D01*
X59032139Y-46486768D01*
X59021006Y-46472807D01*
X58942108Y-46364213D01*
X58942102Y-46364206D01*
X58791789Y-46213893D01*
X58706474Y-46151909D01*
X58619816Y-46088949D01*
X58613223Y-46085590D01*
X58430418Y-45992445D01*
X58430407Y-45992441D01*
X58228251Y-45926756D01*
X58228234Y-45926752D01*
X58018287Y-45893500D01*
X57805713Y-45893500D01*
X57595765Y-45926752D01*
X57595748Y-45926756D01*
X57393592Y-45992441D01*
X57393581Y-45992445D01*
X57204187Y-46088947D01*
X57032210Y-46213893D01*
X56881897Y-46364206D01*
X56881891Y-46364213D01*
X56802994Y-46472807D01*
X56736300Y-46531076D01*
X56650928Y-46554638D01*
X56563788Y-46538824D01*
X56492139Y-46486768D01*
X56481006Y-46472807D01*
X56402108Y-46364213D01*
X56402102Y-46364206D01*
X56251789Y-46213893D01*
X56166474Y-46151909D01*
X56079816Y-46088949D01*
X56073223Y-46085590D01*
X55890418Y-45992445D01*
X55890407Y-45992441D01*
X55688251Y-45926756D01*
X55688234Y-45926752D01*
X55478287Y-45893500D01*
X55265713Y-45893500D01*
X55055765Y-45926752D01*
X55055748Y-45926756D01*
X54853592Y-45992441D01*
X54853581Y-45992445D01*
X54664187Y-46088947D01*
X54492210Y-46213893D01*
X54341897Y-46364206D01*
X54341891Y-46364213D01*
X54262994Y-46472807D01*
X54196300Y-46531076D01*
X54110928Y-46554638D01*
X54023788Y-46538824D01*
X53952139Y-46486768D01*
X53941006Y-46472807D01*
X53862108Y-46364213D01*
X53862102Y-46364206D01*
X53711789Y-46213893D01*
X53626474Y-46151909D01*
X53539816Y-46088949D01*
X53533223Y-46085590D01*
X53350418Y-45992445D01*
X53350407Y-45992441D01*
X53148251Y-45926756D01*
X53148234Y-45926752D01*
X52938287Y-45893500D01*
X52725713Y-45893500D01*
X52515765Y-45926752D01*
X52515748Y-45926756D01*
X52313592Y-45992441D01*
X52313581Y-45992445D01*
X52124187Y-46088947D01*
X51952210Y-46213893D01*
X51801897Y-46364206D01*
X51801891Y-46364213D01*
X51722994Y-46472807D01*
X51656300Y-46531076D01*
X51570928Y-46554638D01*
X51483788Y-46538824D01*
X51412139Y-46486768D01*
X51401006Y-46472807D01*
X51322108Y-46364213D01*
X51322102Y-46364206D01*
X51171789Y-46213893D01*
X51086474Y-46151909D01*
X50999816Y-46088949D01*
X50993223Y-46085590D01*
X50810418Y-45992445D01*
X50810407Y-45992441D01*
X50608251Y-45926756D01*
X50608234Y-45926752D01*
X50398287Y-45893500D01*
X50185713Y-45893500D01*
X49975765Y-45926752D01*
X49975748Y-45926756D01*
X49773592Y-45992441D01*
X49773581Y-45992445D01*
X49584187Y-46088947D01*
X49412210Y-46213893D01*
X49261897Y-46364206D01*
X49261891Y-46364213D01*
X49182994Y-46472807D01*
X49116300Y-46531076D01*
X49030928Y-46554638D01*
X48943788Y-46538824D01*
X48872139Y-46486768D01*
X48861006Y-46472807D01*
X48782108Y-46364213D01*
X48782102Y-46364206D01*
X48631789Y-46213893D01*
X48546474Y-46151909D01*
X48459816Y-46088949D01*
X48453223Y-46085590D01*
X48270418Y-45992445D01*
X48270407Y-45992441D01*
X48068251Y-45926756D01*
X48068234Y-45926752D01*
X47858287Y-45893500D01*
X47645713Y-45893500D01*
X47435765Y-45926752D01*
X47435748Y-45926756D01*
X47233592Y-45992441D01*
X47233581Y-45992445D01*
X47044187Y-46088947D01*
X46872210Y-46213893D01*
X46840804Y-46245299D01*
X46765815Y-46292417D01*
X46677808Y-46302331D01*
X46594215Y-46273080D01*
X46531592Y-46210455D01*
X46513639Y-46174127D01*
X46505352Y-46151909D01*
X46419189Y-46036810D01*
X46304090Y-45950647D01*
X46304087Y-45950646D01*
X46169381Y-45900403D01*
X46169372Y-45900401D01*
X46109823Y-45894000D01*
X45462000Y-45894000D01*
X45462000Y-46810988D01*
X45404993Y-46778075D01*
X45277826Y-46744000D01*
X45146174Y-46744000D01*
X45019007Y-46778075D01*
X44962000Y-46810988D01*
X44962000Y-45894000D01*
X44314177Y-45894000D01*
X44254627Y-45900401D01*
X44254618Y-45900403D01*
X44119912Y-45950646D01*
X44119909Y-45950647D01*
X44004810Y-46036810D01*
X43918647Y-46151909D01*
X43918646Y-46151912D01*
X43868403Y-46286618D01*
X43868401Y-46286627D01*
X43862000Y-46346177D01*
X15500500Y-46346177D01*
X15500500Y-43621751D01*
X23119603Y-43621751D01*
X23119603Y-43826455D01*
X23138930Y-43948480D01*
X23151625Y-44028632D01*
X23151626Y-44028639D01*
X23214880Y-44223315D01*
X23214888Y-44223334D01*
X23307809Y-44405702D01*
X23307815Y-44405712D01*
X23307816Y-44405713D01*
X23428137Y-44571322D01*
X23572884Y-44716069D01*
X23738492Y-44836389D01*
X23738493Y-44836390D01*
X23738503Y-44836396D01*
X23920871Y-44929317D01*
X23920878Y-44929319D01*
X23920884Y-44929323D01*
X24115569Y-44992580D01*
X24317751Y-45024603D01*
X24317752Y-45024603D01*
X24522454Y-45024603D01*
X24522455Y-45024603D01*
X24724637Y-44992580D01*
X24919322Y-44929323D01*
X24919336Y-44929316D01*
X25101702Y-44836396D01*
X25101706Y-44836393D01*
X25101713Y-44836390D01*
X25267322Y-44716069D01*
X25412069Y-44571322D01*
X25532390Y-44405713D01*
X25532397Y-44405701D01*
X25625317Y-44223334D01*
X25625317Y-44223332D01*
X25625323Y-44223322D01*
X25688580Y-44028637D01*
X25720603Y-43826455D01*
X25720603Y-43621751D01*
X25720603Y-43621750D01*
X27691603Y-43621750D01*
X27691603Y-43826454D01*
X27710930Y-43948479D01*
X27723625Y-44028631D01*
X27723626Y-44028638D01*
X27786880Y-44223314D01*
X27786888Y-44223333D01*
X27879809Y-44405701D01*
X27879815Y-44405711D01*
X27938011Y-44485811D01*
X28000137Y-44571321D01*
X28144884Y-44716068D01*
X28144887Y-44716070D01*
X28310493Y-44836389D01*
X28310503Y-44836395D01*
X28492871Y-44929316D01*
X28492878Y-44929318D01*
X28492884Y-44929322D01*
X28687569Y-44992579D01*
X28889751Y-45024602D01*
X28889752Y-45024602D01*
X29094454Y-45024602D01*
X29094455Y-45024602D01*
X29296637Y-44992579D01*
X29491322Y-44929322D01*
X29491334Y-44929316D01*
X29673702Y-44836395D01*
X29673706Y-44836392D01*
X29673713Y-44836389D01*
X29839322Y-44716068D01*
X29984069Y-44571321D01*
X30104390Y-44405712D01*
X30124886Y-44365488D01*
X30197317Y-44223333D01*
X30197322Y-44223322D01*
X30197323Y-44223321D01*
X30260580Y-44028636D01*
X30292603Y-43826454D01*
X30292603Y-43621750D01*
X32263603Y-43621750D01*
X32263603Y-43826454D01*
X32282930Y-43948479D01*
X32295625Y-44028631D01*
X32295626Y-44028638D01*
X32358880Y-44223314D01*
X32358888Y-44223333D01*
X32451809Y-44405701D01*
X32451815Y-44405711D01*
X32510011Y-44485811D01*
X32572137Y-44571321D01*
X32716884Y-44716068D01*
X32716887Y-44716070D01*
X32882493Y-44836389D01*
X32882503Y-44836395D01*
X33064871Y-44929316D01*
X33064878Y-44929318D01*
X33064884Y-44929322D01*
X33259569Y-44992579D01*
X33461751Y-45024602D01*
X33461752Y-45024602D01*
X33666454Y-45024602D01*
X33666455Y-45024602D01*
X33868637Y-44992579D01*
X34063322Y-44929322D01*
X34063334Y-44929316D01*
X34245702Y-44836395D01*
X34245706Y-44836392D01*
X34245713Y-44836389D01*
X34411322Y-44716068D01*
X34556069Y-44571321D01*
X34676390Y-44405712D01*
X34696886Y-44365488D01*
X34769317Y-44223333D01*
X34769322Y-44223322D01*
X34769323Y-44223321D01*
X34832580Y-44028636D01*
X34864603Y-43826454D01*
X34864603Y-43621750D01*
X34832580Y-43419568D01*
X34784364Y-43271173D01*
X36609696Y-43271173D01*
X36609696Y-43475874D01*
X36641718Y-43678053D01*
X36641719Y-43678060D01*
X36704973Y-43872736D01*
X36704981Y-43872755D01*
X36797902Y-44055123D01*
X36797908Y-44055133D01*
X36797909Y-44055134D01*
X36918230Y-44220743D01*
X37062977Y-44365490D01*
X37118340Y-44405713D01*
X37228586Y-44485811D01*
X37228596Y-44485817D01*
X37410964Y-44578738D01*
X37410971Y-44578740D01*
X37410977Y-44578744D01*
X37605662Y-44642001D01*
X37807844Y-44674024D01*
X37807845Y-44674024D01*
X38012547Y-44674024D01*
X38012548Y-44674024D01*
X38214730Y-44642001D01*
X38409415Y-44578744D01*
X38423980Y-44571323D01*
X38591795Y-44485817D01*
X38591799Y-44485814D01*
X38591806Y-44485811D01*
X38757415Y-44365490D01*
X38902162Y-44220743D01*
X39022483Y-44055134D01*
X39035984Y-44028638D01*
X39115410Y-43872755D01*
X39115410Y-43872753D01*
X39115416Y-43872743D01*
X39178673Y-43678058D01*
X39210696Y-43475876D01*
X39210696Y-43271172D01*
X39178673Y-43068990D01*
X39115416Y-42874305D01*
X39115412Y-42874299D01*
X39115410Y-42874292D01*
X39022489Y-42691924D01*
X39022483Y-42691914D01*
X38902163Y-42526307D01*
X38902162Y-42526305D01*
X38757415Y-42381558D01*
X38591806Y-42261237D01*
X38591807Y-42261237D01*
X38591805Y-42261236D01*
X38591795Y-42261230D01*
X38409427Y-42168309D01*
X38409408Y-42168301D01*
X38214732Y-42105047D01*
X38214725Y-42105046D01*
X38099931Y-42086864D01*
X38012548Y-42073024D01*
X37807844Y-42073024D01*
X37746831Y-42082687D01*
X37605666Y-42105046D01*
X37605659Y-42105047D01*
X37410983Y-42168301D01*
X37410964Y-42168309D01*
X37228596Y-42261230D01*
X37228586Y-42261236D01*
X37062979Y-42381556D01*
X37062975Y-42381559D01*
X36918231Y-42526303D01*
X36918228Y-42526307D01*
X36797908Y-42691914D01*
X36797902Y-42691924D01*
X36704981Y-42874292D01*
X36704973Y-42874311D01*
X36641719Y-43068987D01*
X36641719Y-43068990D01*
X36617027Y-43224890D01*
X36609696Y-43271173D01*
X34784364Y-43271173D01*
X34769323Y-43224883D01*
X34769317Y-43224871D01*
X34769317Y-43224870D01*
X34676396Y-43042502D01*
X34676390Y-43042492D01*
X34556069Y-42876883D01*
X34411322Y-42732136D01*
X34345668Y-42684436D01*
X34245712Y-42611814D01*
X34245702Y-42611808D01*
X34063334Y-42518887D01*
X34063315Y-42518879D01*
X33868639Y-42455625D01*
X33868632Y-42455624D01*
X33753838Y-42437442D01*
X33666455Y-42423602D01*
X33461751Y-42423602D01*
X33400738Y-42433265D01*
X33259573Y-42455624D01*
X33259566Y-42455625D01*
X33064890Y-42518879D01*
X33064871Y-42518887D01*
X32882503Y-42611808D01*
X32882493Y-42611814D01*
X32716886Y-42732134D01*
X32716882Y-42732137D01*
X32572138Y-42876881D01*
X32572135Y-42876885D01*
X32451815Y-43042492D01*
X32451809Y-43042502D01*
X32358888Y-43224870D01*
X32358880Y-43224889D01*
X32295626Y-43419565D01*
X32295625Y-43419572D01*
X32273266Y-43560737D01*
X32263603Y-43621750D01*
X30292603Y-43621750D01*
X30260580Y-43419568D01*
X30197323Y-43224883D01*
X30197317Y-43224871D01*
X30197317Y-43224870D01*
X30104396Y-43042502D01*
X30104390Y-43042492D01*
X29984069Y-42876883D01*
X29839322Y-42732136D01*
X29773668Y-42684436D01*
X29673712Y-42611814D01*
X29673702Y-42611808D01*
X29491334Y-42518887D01*
X29491315Y-42518879D01*
X29296639Y-42455625D01*
X29296632Y-42455624D01*
X29181838Y-42437442D01*
X29094455Y-42423602D01*
X28889751Y-42423602D01*
X28828738Y-42433265D01*
X28687573Y-42455624D01*
X28687566Y-42455625D01*
X28492890Y-42518879D01*
X28492871Y-42518887D01*
X28310503Y-42611808D01*
X28310493Y-42611814D01*
X28144886Y-42732134D01*
X28144882Y-42732137D01*
X28000138Y-42876881D01*
X28000135Y-42876885D01*
X27879815Y-43042492D01*
X27879809Y-43042502D01*
X27786888Y-43224870D01*
X27786880Y-43224889D01*
X27723626Y-43419565D01*
X27723625Y-43419572D01*
X27701266Y-43560737D01*
X27691603Y-43621750D01*
X25720603Y-43621750D01*
X25688580Y-43419569D01*
X25625323Y-43224884D01*
X25625319Y-43224878D01*
X25625317Y-43224871D01*
X25532396Y-43042503D01*
X25532390Y-43042493D01*
X25412070Y-42876886D01*
X25412069Y-42876884D01*
X25267322Y-42732137D01*
X25101713Y-42611816D01*
X25101714Y-42611816D01*
X25101712Y-42611815D01*
X25101702Y-42611809D01*
X24919334Y-42518888D01*
X24919315Y-42518880D01*
X24724639Y-42455626D01*
X24724632Y-42455625D01*
X24609838Y-42437443D01*
X24522455Y-42423603D01*
X24317751Y-42423603D01*
X24256738Y-42433266D01*
X24115573Y-42455625D01*
X24115566Y-42455626D01*
X23920890Y-42518880D01*
X23920871Y-42518888D01*
X23738503Y-42611809D01*
X23738493Y-42611815D01*
X23572886Y-42732135D01*
X23572882Y-42732138D01*
X23428138Y-42876882D01*
X23428135Y-42876886D01*
X23307815Y-43042493D01*
X23307809Y-43042503D01*
X23214888Y-43224871D01*
X23214880Y-43224890D01*
X23151626Y-43419566D01*
X23151625Y-43419573D01*
X23129266Y-43560738D01*
X23119603Y-43621751D01*
X15500500Y-43621751D01*
X15500500Y-41553649D01*
X39847500Y-41553649D01*
X39847500Y-41758350D01*
X39879522Y-41960529D01*
X39879523Y-41960536D01*
X39942777Y-42155212D01*
X39942785Y-42155231D01*
X40035706Y-42337599D01*
X40035712Y-42337609D01*
X40098189Y-42423602D01*
X40156034Y-42503219D01*
X40300781Y-42647966D01*
X40416635Y-42732138D01*
X40466390Y-42768287D01*
X40466400Y-42768293D01*
X40648768Y-42861214D01*
X40648775Y-42861216D01*
X40648781Y-42861220D01*
X40648786Y-42861221D01*
X40648787Y-42861222D01*
X40696984Y-42876882D01*
X40843466Y-42924477D01*
X41045648Y-42956500D01*
X41045649Y-42956500D01*
X41250351Y-42956500D01*
X41250352Y-42956500D01*
X41452534Y-42924477D01*
X41647219Y-42861220D01*
X41647231Y-42861214D01*
X41829599Y-42768293D01*
X41829603Y-42768290D01*
X41829610Y-42768287D01*
X41995219Y-42647966D01*
X42139966Y-42503219D01*
X42260287Y-42337610D01*
X42346555Y-42168301D01*
X42353214Y-42155231D01*
X42353214Y-42155229D01*
X42353220Y-42155219D01*
X42416477Y-41960534D01*
X42448500Y-41758352D01*
X42448500Y-41553649D01*
X50007500Y-41553649D01*
X50007500Y-41758350D01*
X50039522Y-41960529D01*
X50039523Y-41960536D01*
X50102777Y-42155212D01*
X50102785Y-42155231D01*
X50195706Y-42337599D01*
X50195712Y-42337609D01*
X50258189Y-42423602D01*
X50316034Y-42503219D01*
X50460781Y-42647966D01*
X50576635Y-42732138D01*
X50626390Y-42768287D01*
X50626400Y-42768293D01*
X50808768Y-42861214D01*
X50808775Y-42861216D01*
X50808781Y-42861220D01*
X50808786Y-42861221D01*
X50808787Y-42861222D01*
X50856984Y-42876882D01*
X51003466Y-42924477D01*
X51205648Y-42956500D01*
X51205649Y-42956500D01*
X51410351Y-42956500D01*
X51410352Y-42956500D01*
X51612534Y-42924477D01*
X51807219Y-42861220D01*
X51807231Y-42861214D01*
X51989599Y-42768293D01*
X51989603Y-42768290D01*
X51989610Y-42768287D01*
X52155219Y-42647966D01*
X52299966Y-42503219D01*
X52420287Y-42337610D01*
X52506555Y-42168301D01*
X52513214Y-42155231D01*
X52513214Y-42155229D01*
X52513220Y-42155219D01*
X52576477Y-41960534D01*
X52608500Y-41758352D01*
X52608500Y-41553648D01*
X52576477Y-41351466D01*
X52513220Y-41156781D01*
X52513216Y-41156775D01*
X52513214Y-41156768D01*
X52420293Y-40974400D01*
X52420287Y-40974390D01*
X52299967Y-40808783D01*
X52299966Y-40808781D01*
X52155219Y-40664034D01*
X51989610Y-40543713D01*
X51989611Y-40543713D01*
X51989609Y-40543712D01*
X51989599Y-40543706D01*
X51807231Y-40450785D01*
X51807212Y-40450777D01*
X51612536Y-40387523D01*
X51612529Y-40387522D01*
X51497735Y-40369340D01*
X51410352Y-40355500D01*
X51205648Y-40355500D01*
X51144635Y-40365163D01*
X51003470Y-40387522D01*
X51003463Y-40387523D01*
X50808787Y-40450777D01*
X50808768Y-40450785D01*
X50626400Y-40543706D01*
X50626390Y-40543712D01*
X50460783Y-40664032D01*
X50460779Y-40664035D01*
X50316035Y-40808779D01*
X50316032Y-40808783D01*
X50195712Y-40974390D01*
X50195706Y-40974400D01*
X50102785Y-41156768D01*
X50102777Y-41156787D01*
X50039523Y-41351463D01*
X50039522Y-41351470D01*
X50007500Y-41553649D01*
X42448500Y-41553649D01*
X42448500Y-41553648D01*
X42416477Y-41351466D01*
X42353220Y-41156781D01*
X42353216Y-41156775D01*
X42353214Y-41156768D01*
X42260293Y-40974400D01*
X42260287Y-40974390D01*
X42139967Y-40808783D01*
X42139966Y-40808781D01*
X41995219Y-40664034D01*
X41829610Y-40543713D01*
X41829611Y-40543713D01*
X41829609Y-40543712D01*
X41829599Y-40543706D01*
X41647231Y-40450785D01*
X41647212Y-40450777D01*
X41452536Y-40387523D01*
X41452529Y-40387522D01*
X41337735Y-40369340D01*
X41250352Y-40355500D01*
X41045648Y-40355500D01*
X40984635Y-40365163D01*
X40843470Y-40387522D01*
X40843463Y-40387523D01*
X40648787Y-40450777D01*
X40648768Y-40450785D01*
X40466400Y-40543706D01*
X40466390Y-40543712D01*
X40300783Y-40664032D01*
X40300779Y-40664035D01*
X40156035Y-40808779D01*
X40156032Y-40808783D01*
X40035712Y-40974390D01*
X40035706Y-40974400D01*
X39942785Y-41156768D01*
X39942777Y-41156787D01*
X39879523Y-41351463D01*
X39879522Y-41351470D01*
X39847500Y-41553649D01*
X15500500Y-41553649D01*
X15500500Y-38505649D01*
X37307500Y-38505649D01*
X37307500Y-38710350D01*
X37339522Y-38912529D01*
X37339523Y-38912536D01*
X37402777Y-39107212D01*
X37402785Y-39107231D01*
X37495706Y-39289599D01*
X37495712Y-39289609D01*
X37495713Y-39289610D01*
X37616034Y-39455219D01*
X37760781Y-39599966D01*
X37926390Y-39720287D01*
X37926400Y-39720293D01*
X38108768Y-39813214D01*
X38108775Y-39813216D01*
X38108781Y-39813220D01*
X38303466Y-39876477D01*
X38505648Y-39908500D01*
X38505649Y-39908500D01*
X38710351Y-39908500D01*
X38710352Y-39908500D01*
X38912534Y-39876477D01*
X39107219Y-39813220D01*
X39107231Y-39813214D01*
X39289599Y-39720293D01*
X39289603Y-39720290D01*
X39289610Y-39720287D01*
X39455219Y-39599966D01*
X39599966Y-39455219D01*
X39720287Y-39289610D01*
X39813220Y-39107219D01*
X39876477Y-38912534D01*
X39908500Y-38710352D01*
X39908500Y-38505649D01*
X47467500Y-38505649D01*
X47467500Y-38710350D01*
X47499522Y-38912529D01*
X47499523Y-38912536D01*
X47562777Y-39107212D01*
X47562785Y-39107231D01*
X47655706Y-39289599D01*
X47655712Y-39289609D01*
X47655713Y-39289610D01*
X47776034Y-39455219D01*
X47920781Y-39599966D01*
X48086390Y-39720287D01*
X48086400Y-39720293D01*
X48268768Y-39813214D01*
X48268775Y-39813216D01*
X48268781Y-39813220D01*
X48463466Y-39876477D01*
X48665648Y-39908500D01*
X48665649Y-39908500D01*
X48870351Y-39908500D01*
X48870352Y-39908500D01*
X49072534Y-39876477D01*
X49267219Y-39813220D01*
X49267231Y-39813214D01*
X49449599Y-39720293D01*
X49449603Y-39720290D01*
X49449610Y-39720287D01*
X49615219Y-39599966D01*
X49759966Y-39455219D01*
X49880287Y-39289610D01*
X49973220Y-39107219D01*
X50036477Y-38912534D01*
X50068500Y-38710352D01*
X50068500Y-38505649D01*
X54071500Y-38505649D01*
X54071500Y-38710350D01*
X54103522Y-38912529D01*
X54103523Y-38912536D01*
X54166777Y-39107212D01*
X54166785Y-39107231D01*
X54259706Y-39289599D01*
X54259712Y-39289609D01*
X54259713Y-39289610D01*
X54380034Y-39455219D01*
X54524781Y-39599966D01*
X54690390Y-39720287D01*
X54690400Y-39720293D01*
X54872768Y-39813214D01*
X54872775Y-39813216D01*
X54872781Y-39813220D01*
X55067466Y-39876477D01*
X55269648Y-39908500D01*
X55269649Y-39908500D01*
X55474351Y-39908500D01*
X55474352Y-39908500D01*
X55676534Y-39876477D01*
X55871219Y-39813220D01*
X55871231Y-39813214D01*
X56053599Y-39720293D01*
X56053603Y-39720290D01*
X56053610Y-39720287D01*
X56219219Y-39599966D01*
X56363966Y-39455219D01*
X56484287Y-39289610D01*
X56577220Y-39107219D01*
X56640477Y-38912534D01*
X56672500Y-38710352D01*
X56672500Y-38505649D01*
X64231500Y-38505649D01*
X64231500Y-38710350D01*
X64263522Y-38912529D01*
X64263523Y-38912536D01*
X64326777Y-39107212D01*
X64326785Y-39107231D01*
X64419706Y-39289599D01*
X64419712Y-39289609D01*
X64419713Y-39289610D01*
X64540034Y-39455219D01*
X64684781Y-39599966D01*
X64850390Y-39720287D01*
X64850400Y-39720293D01*
X65032768Y-39813214D01*
X65032775Y-39813216D01*
X65032781Y-39813220D01*
X65227466Y-39876477D01*
X65429648Y-39908500D01*
X65429649Y-39908500D01*
X65634351Y-39908500D01*
X65634352Y-39908500D01*
X65836534Y-39876477D01*
X66031219Y-39813220D01*
X66031231Y-39813214D01*
X66213599Y-39720293D01*
X66213603Y-39720290D01*
X66213610Y-39720287D01*
X66379219Y-39599966D01*
X66523966Y-39455219D01*
X66644287Y-39289610D01*
X66737220Y-39107219D01*
X66800477Y-38912534D01*
X66832500Y-38710352D01*
X66832500Y-38505648D01*
X66800477Y-38303466D01*
X66737220Y-38108781D01*
X66737216Y-38108775D01*
X66737214Y-38108768D01*
X66644293Y-37926400D01*
X66644287Y-37926390D01*
X66523966Y-37760781D01*
X66379219Y-37616034D01*
X66313565Y-37568334D01*
X66213609Y-37495712D01*
X66213599Y-37495706D01*
X66031231Y-37402785D01*
X66031212Y-37402777D01*
X65836536Y-37339523D01*
X65836529Y-37339522D01*
X65721735Y-37321340D01*
X65634352Y-37307500D01*
X65429648Y-37307500D01*
X65368635Y-37317163D01*
X65227470Y-37339522D01*
X65227463Y-37339523D01*
X65032787Y-37402777D01*
X65032768Y-37402785D01*
X64850400Y-37495706D01*
X64850390Y-37495712D01*
X64684783Y-37616032D01*
X64684779Y-37616035D01*
X64540035Y-37760779D01*
X64540032Y-37760783D01*
X64419712Y-37926390D01*
X64419706Y-37926400D01*
X64326785Y-38108768D01*
X64326777Y-38108787D01*
X64263523Y-38303463D01*
X64263522Y-38303470D01*
X64231500Y-38505649D01*
X56672500Y-38505649D01*
X56672500Y-38505648D01*
X56640477Y-38303466D01*
X56577220Y-38108781D01*
X56577216Y-38108775D01*
X56577214Y-38108768D01*
X56484293Y-37926400D01*
X56484287Y-37926390D01*
X56363966Y-37760781D01*
X56219219Y-37616034D01*
X56153565Y-37568334D01*
X56053609Y-37495712D01*
X56053599Y-37495706D01*
X55871231Y-37402785D01*
X55871212Y-37402777D01*
X55676536Y-37339523D01*
X55676529Y-37339522D01*
X55561735Y-37321340D01*
X55474352Y-37307500D01*
X55269648Y-37307500D01*
X55208635Y-37317163D01*
X55067470Y-37339522D01*
X55067463Y-37339523D01*
X54872787Y-37402777D01*
X54872768Y-37402785D01*
X54690400Y-37495706D01*
X54690390Y-37495712D01*
X54524783Y-37616032D01*
X54524779Y-37616035D01*
X54380035Y-37760779D01*
X54380032Y-37760783D01*
X54259712Y-37926390D01*
X54259706Y-37926400D01*
X54166785Y-38108768D01*
X54166777Y-38108787D01*
X54103523Y-38303463D01*
X54103522Y-38303470D01*
X54071500Y-38505649D01*
X50068500Y-38505649D01*
X50068500Y-38505648D01*
X50036477Y-38303466D01*
X49973220Y-38108781D01*
X49973216Y-38108775D01*
X49973214Y-38108768D01*
X49880293Y-37926400D01*
X49880287Y-37926390D01*
X49759966Y-37760781D01*
X49615219Y-37616034D01*
X49549565Y-37568334D01*
X49449609Y-37495712D01*
X49449599Y-37495706D01*
X49267231Y-37402785D01*
X49267212Y-37402777D01*
X49072536Y-37339523D01*
X49072529Y-37339522D01*
X48957735Y-37321340D01*
X48870352Y-37307500D01*
X48665648Y-37307500D01*
X48604635Y-37317163D01*
X48463470Y-37339522D01*
X48463463Y-37339523D01*
X48268787Y-37402777D01*
X48268768Y-37402785D01*
X48086400Y-37495706D01*
X48086390Y-37495712D01*
X47920783Y-37616032D01*
X47920779Y-37616035D01*
X47776035Y-37760779D01*
X47776032Y-37760783D01*
X47655712Y-37926390D01*
X47655706Y-37926400D01*
X47562785Y-38108768D01*
X47562777Y-38108787D01*
X47499523Y-38303463D01*
X47499522Y-38303470D01*
X47467500Y-38505649D01*
X39908500Y-38505649D01*
X39908500Y-38505648D01*
X39876477Y-38303466D01*
X39813220Y-38108781D01*
X39813216Y-38108775D01*
X39813214Y-38108768D01*
X39720293Y-37926400D01*
X39720287Y-37926390D01*
X39599966Y-37760781D01*
X39455219Y-37616034D01*
X39389565Y-37568334D01*
X39289609Y-37495712D01*
X39289599Y-37495706D01*
X39107231Y-37402785D01*
X39107212Y-37402777D01*
X38912536Y-37339523D01*
X38912529Y-37339522D01*
X38797735Y-37321340D01*
X38710352Y-37307500D01*
X38505648Y-37307500D01*
X38444635Y-37317163D01*
X38303470Y-37339522D01*
X38303463Y-37339523D01*
X38108787Y-37402777D01*
X38108768Y-37402785D01*
X37926400Y-37495706D01*
X37926390Y-37495712D01*
X37760783Y-37616032D01*
X37760779Y-37616035D01*
X37616035Y-37760779D01*
X37616032Y-37760783D01*
X37495712Y-37926390D01*
X37495706Y-37926400D01*
X37402785Y-38108768D01*
X37402777Y-38108787D01*
X37339523Y-38303463D01*
X37339522Y-38303470D01*
X37307500Y-38505649D01*
X15500500Y-38505649D01*
X15500500Y-36437546D01*
X15935398Y-36437546D01*
X15935398Y-36642250D01*
X15954725Y-36764275D01*
X15967420Y-36844427D01*
X15967421Y-36844434D01*
X16030675Y-37039110D01*
X16030683Y-37039129D01*
X16123604Y-37221497D01*
X16123610Y-37221507D01*
X16123611Y-37221508D01*
X16243932Y-37387117D01*
X16388679Y-37531864D01*
X16554287Y-37652184D01*
X16554288Y-37652185D01*
X16554298Y-37652191D01*
X16736666Y-37745112D01*
X16736673Y-37745114D01*
X16736679Y-37745118D01*
X16736684Y-37745119D01*
X16736685Y-37745120D01*
X16784885Y-37760781D01*
X16931364Y-37808375D01*
X17133546Y-37840398D01*
X17133547Y-37840398D01*
X17338249Y-37840398D01*
X17338250Y-37840398D01*
X17540432Y-37808375D01*
X17735117Y-37745118D01*
X17735131Y-37745111D01*
X17917497Y-37652191D01*
X17917501Y-37652188D01*
X17917508Y-37652185D01*
X18083117Y-37531864D01*
X18227864Y-37387117D01*
X18348185Y-37221508D01*
X18348192Y-37221496D01*
X18441112Y-37039129D01*
X18441112Y-37039127D01*
X18441118Y-37039117D01*
X18504375Y-36844432D01*
X18536398Y-36642250D01*
X18536398Y-36437546D01*
X20507398Y-36437546D01*
X20507398Y-36642247D01*
X20539420Y-36844426D01*
X20539421Y-36844433D01*
X20602675Y-37039109D01*
X20602683Y-37039128D01*
X20695604Y-37221496D01*
X20695610Y-37221506D01*
X20753807Y-37301607D01*
X20815932Y-37387116D01*
X20960679Y-37531863D01*
X21076533Y-37616035D01*
X21126288Y-37652184D01*
X21126298Y-37652190D01*
X21308666Y-37745111D01*
X21308673Y-37745113D01*
X21308679Y-37745117D01*
X21503364Y-37808374D01*
X21705546Y-37840397D01*
X21705547Y-37840397D01*
X21910249Y-37840397D01*
X21910250Y-37840397D01*
X22112432Y-37808374D01*
X22307117Y-37745117D01*
X22307129Y-37745111D01*
X22489497Y-37652190D01*
X22489501Y-37652187D01*
X22489508Y-37652184D01*
X22655117Y-37531863D01*
X22799864Y-37387116D01*
X22920185Y-37221507D01*
X22936093Y-37190287D01*
X23013112Y-37039128D01*
X23013117Y-37039117D01*
X23013118Y-37039116D01*
X23076375Y-36844431D01*
X23108398Y-36642249D01*
X23108398Y-36437546D01*
X25079398Y-36437546D01*
X25079398Y-36642247D01*
X25111420Y-36844426D01*
X25111421Y-36844433D01*
X25174675Y-37039109D01*
X25174683Y-37039128D01*
X25267604Y-37221496D01*
X25267610Y-37221506D01*
X25325807Y-37301607D01*
X25387932Y-37387116D01*
X25532679Y-37531863D01*
X25648533Y-37616035D01*
X25698288Y-37652184D01*
X25698298Y-37652190D01*
X25880666Y-37745111D01*
X25880673Y-37745113D01*
X25880679Y-37745117D01*
X26075364Y-37808374D01*
X26277546Y-37840397D01*
X26277547Y-37840397D01*
X26482249Y-37840397D01*
X26482250Y-37840397D01*
X26684432Y-37808374D01*
X26879117Y-37745117D01*
X26879129Y-37745111D01*
X27061497Y-37652190D01*
X27061501Y-37652187D01*
X27061508Y-37652184D01*
X27227117Y-37531863D01*
X27371864Y-37387116D01*
X27492185Y-37221507D01*
X27508093Y-37190287D01*
X27585112Y-37039128D01*
X27585117Y-37039117D01*
X27585118Y-37039116D01*
X27648375Y-36844431D01*
X27680398Y-36642249D01*
X27680398Y-36437545D01*
X27648375Y-36235363D01*
X27600159Y-36086969D01*
X29425492Y-36086969D01*
X29425492Y-36291670D01*
X29457514Y-36493849D01*
X29457515Y-36493856D01*
X29520769Y-36688532D01*
X29520777Y-36688551D01*
X29613698Y-36870919D01*
X29613704Y-36870929D01*
X29613705Y-36870930D01*
X29734026Y-37036539D01*
X29878773Y-37181286D01*
X30044382Y-37301607D01*
X30044392Y-37301613D01*
X30226760Y-37394534D01*
X30226767Y-37394536D01*
X30226773Y-37394540D01*
X30421458Y-37457797D01*
X30623640Y-37489820D01*
X30623641Y-37489820D01*
X30828343Y-37489820D01*
X30828344Y-37489820D01*
X31030526Y-37457797D01*
X31225211Y-37394540D01*
X31225223Y-37394534D01*
X31407591Y-37301613D01*
X31407595Y-37301610D01*
X31407602Y-37301607D01*
X31573211Y-37181286D01*
X31717958Y-37036539D01*
X31838279Y-36870930D01*
X31843594Y-36860500D01*
X31931206Y-36688551D01*
X31931206Y-36688549D01*
X31931212Y-36688539D01*
X31994469Y-36493854D01*
X32026492Y-36291672D01*
X32026492Y-36086968D01*
X31994469Y-35884786D01*
X31931212Y-35690101D01*
X31838279Y-35507710D01*
X31801907Y-35457648D01*
X43657500Y-35457648D01*
X43657500Y-35662352D01*
X43676827Y-35784377D01*
X43689522Y-35864529D01*
X43689523Y-35864536D01*
X43752777Y-36059212D01*
X43752785Y-36059231D01*
X43845706Y-36241599D01*
X43845712Y-36241609D01*
X43845713Y-36241610D01*
X43966034Y-36407219D01*
X44110781Y-36551966D01*
X44129536Y-36565592D01*
X44276390Y-36672287D01*
X44276400Y-36672293D01*
X44458768Y-36765214D01*
X44458775Y-36765216D01*
X44458781Y-36765220D01*
X44653466Y-36828477D01*
X44855648Y-36860500D01*
X44855649Y-36860500D01*
X45060351Y-36860500D01*
X45060352Y-36860500D01*
X45262534Y-36828477D01*
X45457219Y-36765220D01*
X45457231Y-36765214D01*
X45639599Y-36672293D01*
X45639603Y-36672290D01*
X45639610Y-36672287D01*
X45805219Y-36551966D01*
X45949966Y-36407219D01*
X46070287Y-36241610D01*
X46073468Y-36235368D01*
X46163214Y-36059231D01*
X46163214Y-36059229D01*
X46163220Y-36059219D01*
X46226477Y-35864534D01*
X46258500Y-35662352D01*
X46258500Y-35457648D01*
X53817500Y-35457648D01*
X53817500Y-35662352D01*
X53836827Y-35784377D01*
X53849522Y-35864529D01*
X53849523Y-35864536D01*
X53912777Y-36059212D01*
X53912785Y-36059231D01*
X54005706Y-36241599D01*
X54005712Y-36241609D01*
X54005713Y-36241610D01*
X54126034Y-36407219D01*
X54270781Y-36551966D01*
X54289536Y-36565592D01*
X54436390Y-36672287D01*
X54436400Y-36672293D01*
X54618768Y-36765214D01*
X54618775Y-36765216D01*
X54618781Y-36765220D01*
X54813466Y-36828477D01*
X55015648Y-36860500D01*
X55015649Y-36860500D01*
X55220351Y-36860500D01*
X55220352Y-36860500D01*
X55422534Y-36828477D01*
X55617219Y-36765220D01*
X55617231Y-36765214D01*
X55799599Y-36672293D01*
X55799603Y-36672290D01*
X55799610Y-36672287D01*
X55965219Y-36551966D01*
X56109966Y-36407219D01*
X56230287Y-36241610D01*
X56233468Y-36235368D01*
X56323214Y-36059231D01*
X56323214Y-36059229D01*
X56323220Y-36059219D01*
X56386477Y-35864534D01*
X56418500Y-35662352D01*
X56418500Y-35457648D01*
X56386477Y-35255466D01*
X56323220Y-35060781D01*
X56323216Y-35060775D01*
X56323214Y-35060768D01*
X56230293Y-34878400D01*
X56230287Y-34878390D01*
X56217108Y-34860251D01*
X56109966Y-34712781D01*
X55965219Y-34568034D01*
X55799610Y-34447713D01*
X55799611Y-34447713D01*
X55799609Y-34447712D01*
X55799599Y-34447706D01*
X55617231Y-34354785D01*
X55617212Y-34354777D01*
X55422536Y-34291523D01*
X55422529Y-34291522D01*
X55307735Y-34273340D01*
X55220352Y-34259500D01*
X55015648Y-34259500D01*
X54954635Y-34269163D01*
X54813470Y-34291522D01*
X54813463Y-34291523D01*
X54618787Y-34354777D01*
X54618768Y-34354785D01*
X54436400Y-34447706D01*
X54436390Y-34447712D01*
X54270783Y-34568032D01*
X54270779Y-34568035D01*
X54126035Y-34712779D01*
X54126032Y-34712783D01*
X54005712Y-34878390D01*
X54005706Y-34878400D01*
X53912785Y-35060768D01*
X53912777Y-35060787D01*
X53849523Y-35255463D01*
X53849523Y-35255466D01*
X53817500Y-35457648D01*
X46258500Y-35457648D01*
X46226477Y-35255466D01*
X46163220Y-35060781D01*
X46163216Y-35060775D01*
X46163214Y-35060768D01*
X46070293Y-34878400D01*
X46070287Y-34878390D01*
X46057108Y-34860251D01*
X45949966Y-34712781D01*
X45805219Y-34568034D01*
X45639610Y-34447713D01*
X45639611Y-34447713D01*
X45639609Y-34447712D01*
X45639599Y-34447706D01*
X45457231Y-34354785D01*
X45457212Y-34354777D01*
X45262536Y-34291523D01*
X45262529Y-34291522D01*
X45147735Y-34273340D01*
X45060352Y-34259500D01*
X44855648Y-34259500D01*
X44794635Y-34269163D01*
X44653470Y-34291522D01*
X44653463Y-34291523D01*
X44458787Y-34354777D01*
X44458768Y-34354785D01*
X44276400Y-34447706D01*
X44276390Y-34447712D01*
X44110783Y-34568032D01*
X44110779Y-34568035D01*
X43966035Y-34712779D01*
X43966032Y-34712783D01*
X43845712Y-34878390D01*
X43845706Y-34878400D01*
X43752785Y-35060768D01*
X43752777Y-35060787D01*
X43689523Y-35255463D01*
X43689523Y-35255466D01*
X43657500Y-35457648D01*
X31801907Y-35457648D01*
X31717958Y-35342101D01*
X31573211Y-35197354D01*
X31407602Y-35077033D01*
X31407603Y-35077033D01*
X31407601Y-35077032D01*
X31407591Y-35077026D01*
X31225223Y-34984105D01*
X31225204Y-34984097D01*
X31030528Y-34920843D01*
X31030521Y-34920842D01*
X30915727Y-34902660D01*
X30828344Y-34888820D01*
X30623640Y-34888820D01*
X30562627Y-34898483D01*
X30421462Y-34920842D01*
X30421455Y-34920843D01*
X30226779Y-34984097D01*
X30226760Y-34984105D01*
X30044392Y-35077026D01*
X30044382Y-35077032D01*
X29878775Y-35197352D01*
X29878771Y-35197355D01*
X29734027Y-35342099D01*
X29734024Y-35342103D01*
X29613704Y-35507710D01*
X29613698Y-35507720D01*
X29520777Y-35690088D01*
X29520769Y-35690107D01*
X29457515Y-35884783D01*
X29457514Y-35884790D01*
X29443227Y-35974994D01*
X29430731Y-36053894D01*
X29425492Y-36086969D01*
X27600159Y-36086969D01*
X27585118Y-36040678D01*
X27585112Y-36040666D01*
X27585112Y-36040665D01*
X27492191Y-35858297D01*
X27492185Y-35858287D01*
X27446609Y-35795557D01*
X27371864Y-35692678D01*
X27227117Y-35547931D01*
X27161463Y-35500231D01*
X27061507Y-35427609D01*
X27061497Y-35427603D01*
X26879129Y-35334682D01*
X26879110Y-35334674D01*
X26684434Y-35271420D01*
X26684427Y-35271419D01*
X26560634Y-35251812D01*
X26482250Y-35239397D01*
X26277546Y-35239397D01*
X26216533Y-35249060D01*
X26075368Y-35271419D01*
X26075361Y-35271420D01*
X25880685Y-35334674D01*
X25880666Y-35334682D01*
X25698298Y-35427603D01*
X25698288Y-35427609D01*
X25532681Y-35547929D01*
X25532677Y-35547932D01*
X25387933Y-35692676D01*
X25387930Y-35692680D01*
X25267610Y-35858287D01*
X25267604Y-35858297D01*
X25174683Y-36040665D01*
X25174675Y-36040684D01*
X25111421Y-36235360D01*
X25111420Y-36235367D01*
X25079398Y-36437546D01*
X23108398Y-36437546D01*
X23108398Y-36437545D01*
X23076375Y-36235363D01*
X23013118Y-36040678D01*
X23013112Y-36040666D01*
X23013112Y-36040665D01*
X22920191Y-35858297D01*
X22920185Y-35858287D01*
X22874609Y-35795557D01*
X22799864Y-35692678D01*
X22655117Y-35547931D01*
X22589463Y-35500231D01*
X22489507Y-35427609D01*
X22489497Y-35427603D01*
X22307129Y-35334682D01*
X22307110Y-35334674D01*
X22112434Y-35271420D01*
X22112427Y-35271419D01*
X21988634Y-35251812D01*
X21910250Y-35239397D01*
X21705546Y-35239397D01*
X21644533Y-35249060D01*
X21503368Y-35271419D01*
X21503361Y-35271420D01*
X21308685Y-35334674D01*
X21308666Y-35334682D01*
X21126298Y-35427603D01*
X21126288Y-35427609D01*
X20960681Y-35547929D01*
X20960677Y-35547932D01*
X20815933Y-35692676D01*
X20815930Y-35692680D01*
X20695610Y-35858287D01*
X20695604Y-35858297D01*
X20602683Y-36040665D01*
X20602675Y-36040684D01*
X20539421Y-36235360D01*
X20539420Y-36235367D01*
X20507398Y-36437546D01*
X18536398Y-36437546D01*
X18504375Y-36235364D01*
X18445413Y-36053897D01*
X18441120Y-36040685D01*
X18441119Y-36040684D01*
X18441118Y-36040679D01*
X18441114Y-36040673D01*
X18441112Y-36040666D01*
X18348191Y-35858298D01*
X18348185Y-35858288D01*
X18316008Y-35814000D01*
X18227864Y-35692679D01*
X18083117Y-35547932D01*
X17917508Y-35427611D01*
X17917509Y-35427611D01*
X17917507Y-35427610D01*
X17917497Y-35427604D01*
X17735129Y-35334683D01*
X17735110Y-35334675D01*
X17540434Y-35271421D01*
X17540427Y-35271420D01*
X17416628Y-35251812D01*
X17338250Y-35239398D01*
X17133546Y-35239398D01*
X17072533Y-35249061D01*
X16931368Y-35271420D01*
X16931361Y-35271421D01*
X16736685Y-35334675D01*
X16736666Y-35334683D01*
X16554298Y-35427604D01*
X16554288Y-35427610D01*
X16388681Y-35547930D01*
X16388677Y-35547933D01*
X16243933Y-35692677D01*
X16243930Y-35692681D01*
X16123610Y-35858288D01*
X16123604Y-35858298D01*
X16030683Y-36040666D01*
X16030675Y-36040685D01*
X15967421Y-36235361D01*
X15967420Y-36235368D01*
X15945117Y-36376184D01*
X15935398Y-36437546D01*
X15500500Y-36437546D01*
X15500500Y-24785713D01*
X17445500Y-24785713D01*
X17445500Y-24998286D01*
X17478752Y-25208234D01*
X17478756Y-25208251D01*
X17544441Y-25410407D01*
X17544445Y-25410418D01*
X17606499Y-25532204D01*
X17640949Y-25599816D01*
X17686995Y-25663193D01*
X17765893Y-25771789D01*
X17916210Y-25922106D01*
X17970688Y-25961685D01*
X18088184Y-26047051D01*
X18160287Y-26083789D01*
X18277581Y-26143554D01*
X18277584Y-26143555D01*
X18277588Y-26143557D01*
X18479757Y-26209246D01*
X18689713Y-26242500D01*
X18902287Y-26242500D01*
X19112243Y-26209246D01*
X19314412Y-26143557D01*
X19503816Y-26047051D01*
X19675792Y-25922104D01*
X19826104Y-25771792D01*
X19905005Y-25663192D01*
X19971699Y-25604923D01*
X20057071Y-25581361D01*
X20144211Y-25597175D01*
X20215861Y-25649230D01*
X20226992Y-25663189D01*
X20305894Y-25771789D01*
X20305897Y-25771793D01*
X20456210Y-25922106D01*
X20510688Y-25961685D01*
X20628184Y-26047051D01*
X20700287Y-26083789D01*
X20817581Y-26143554D01*
X20817584Y-26143555D01*
X20817588Y-26143557D01*
X21019757Y-26209246D01*
X21229713Y-26242500D01*
X21442287Y-26242500D01*
X21652243Y-26209246D01*
X21854412Y-26143557D01*
X22043816Y-26047051D01*
X22215792Y-25922104D01*
X22366104Y-25771792D01*
X22445005Y-25663192D01*
X22511699Y-25604923D01*
X22597071Y-25581361D01*
X22684211Y-25597175D01*
X22755861Y-25649230D01*
X22766992Y-25663189D01*
X22845894Y-25771789D01*
X22845897Y-25771793D01*
X22996210Y-25922106D01*
X23050688Y-25961685D01*
X23168184Y-26047051D01*
X23240287Y-26083789D01*
X23357581Y-26143554D01*
X23357584Y-26143555D01*
X23357588Y-26143557D01*
X23559757Y-26209246D01*
X23769713Y-26242500D01*
X23982287Y-26242500D01*
X24192243Y-26209246D01*
X24394412Y-26143557D01*
X24583816Y-26047051D01*
X24755792Y-25922104D01*
X24906104Y-25771792D01*
X24985005Y-25663192D01*
X25051699Y-25604923D01*
X25137071Y-25581361D01*
X25224211Y-25597175D01*
X25295861Y-25649230D01*
X25306992Y-25663189D01*
X25385894Y-25771789D01*
X25385897Y-25771793D01*
X25536210Y-25922106D01*
X25590688Y-25961685D01*
X25708184Y-26047051D01*
X25780287Y-26083789D01*
X25897581Y-26143554D01*
X25897584Y-26143555D01*
X25897588Y-26143557D01*
X26099757Y-26209246D01*
X26309713Y-26242500D01*
X26522287Y-26242500D01*
X26732243Y-26209246D01*
X26934412Y-26143557D01*
X27123816Y-26047051D01*
X27295792Y-25922104D01*
X27446104Y-25771792D01*
X27525005Y-25663192D01*
X27591699Y-25604923D01*
X27677071Y-25581361D01*
X27764211Y-25597175D01*
X27835861Y-25649230D01*
X27846992Y-25663189D01*
X27925894Y-25771789D01*
X27925897Y-25771793D01*
X28076210Y-25922106D01*
X28130688Y-25961685D01*
X28248184Y-26047051D01*
X28320287Y-26083789D01*
X28437581Y-26143554D01*
X28437584Y-26143555D01*
X28437588Y-26143557D01*
X28639757Y-26209246D01*
X28849713Y-26242500D01*
X29062287Y-26242500D01*
X29272243Y-26209246D01*
X29474412Y-26143557D01*
X29663816Y-26047051D01*
X29835792Y-25922104D01*
X29986104Y-25771792D01*
X30065005Y-25663192D01*
X30131699Y-25604923D01*
X30217071Y-25581361D01*
X30304211Y-25597175D01*
X30375861Y-25649230D01*
X30386992Y-25663189D01*
X30465894Y-25771789D01*
X30465897Y-25771793D01*
X30616206Y-25922102D01*
X30616213Y-25922108D01*
X30724807Y-26001006D01*
X30783076Y-26067700D01*
X30806638Y-26153072D01*
X30790824Y-26240212D01*
X30738768Y-26311861D01*
X30724807Y-26322994D01*
X30616213Y-26401891D01*
X30616206Y-26401897D01*
X30465893Y-26552210D01*
X30340947Y-26724187D01*
X30244445Y-26913581D01*
X30244441Y-26913592D01*
X30178756Y-27115748D01*
X30178752Y-27115765D01*
X30159233Y-27239007D01*
X30145500Y-27325713D01*
X30145500Y-27538287D01*
X30152685Y-27583656D01*
X30178752Y-27748234D01*
X30178756Y-27748251D01*
X30244441Y-27950407D01*
X30244445Y-27950418D01*
X30327540Y-28113500D01*
X30340949Y-28139816D01*
X30386995Y-28203193D01*
X30465893Y-28311789D01*
X30616206Y-28462102D01*
X30616213Y-28462108D01*
X30724807Y-28541006D01*
X30783076Y-28607700D01*
X30806638Y-28693072D01*
X30790824Y-28780212D01*
X30738768Y-28851861D01*
X30724807Y-28862994D01*
X30616213Y-28941891D01*
X30616206Y-28941897D01*
X30465897Y-29092206D01*
X30465891Y-29092213D01*
X30386994Y-29200807D01*
X30320300Y-29259076D01*
X30234928Y-29282638D01*
X30147788Y-29266824D01*
X30076139Y-29214768D01*
X30065006Y-29200807D01*
X29986108Y-29092213D01*
X29986102Y-29092206D01*
X29835789Y-28941893D01*
X29750143Y-28879669D01*
X29663816Y-28816949D01*
X29623292Y-28796301D01*
X29474418Y-28720445D01*
X29474407Y-28720441D01*
X29272251Y-28654756D01*
X29272234Y-28654752D01*
X29062287Y-28621500D01*
X28849713Y-28621500D01*
X28639765Y-28654752D01*
X28639748Y-28654756D01*
X28437592Y-28720441D01*
X28437581Y-28720445D01*
X28248187Y-28816947D01*
X28076210Y-28941893D01*
X27925897Y-29092206D01*
X27925891Y-29092213D01*
X27846994Y-29200807D01*
X27780300Y-29259076D01*
X27694928Y-29282638D01*
X27607788Y-29266824D01*
X27536139Y-29214768D01*
X27525006Y-29200807D01*
X27446108Y-29092213D01*
X27446102Y-29092206D01*
X27295789Y-28941893D01*
X27210143Y-28879669D01*
X27123816Y-28816949D01*
X27083292Y-28796301D01*
X26934418Y-28720445D01*
X26934407Y-28720441D01*
X26732251Y-28654756D01*
X26732234Y-28654752D01*
X26522287Y-28621500D01*
X26309713Y-28621500D01*
X26099765Y-28654752D01*
X26099748Y-28654756D01*
X25897592Y-28720441D01*
X25897581Y-28720445D01*
X25708187Y-28816947D01*
X25536210Y-28941893D01*
X25385897Y-29092206D01*
X25385891Y-29092213D01*
X25306994Y-29200807D01*
X25240300Y-29259076D01*
X25154928Y-29282638D01*
X25067788Y-29266824D01*
X24996139Y-29214768D01*
X24985006Y-29200807D01*
X24906108Y-29092213D01*
X24906102Y-29092206D01*
X24755789Y-28941893D01*
X24670143Y-28879669D01*
X24583816Y-28816949D01*
X24543292Y-28796301D01*
X24394418Y-28720445D01*
X24394407Y-28720441D01*
X24192251Y-28654756D01*
X24192234Y-28654752D01*
X23982287Y-28621500D01*
X23769713Y-28621500D01*
X23559765Y-28654752D01*
X23559748Y-28654756D01*
X23357592Y-28720441D01*
X23357581Y-28720445D01*
X23168187Y-28816947D01*
X22996210Y-28941893D01*
X22845897Y-29092206D01*
X22845891Y-29092213D01*
X22766994Y-29200807D01*
X22700300Y-29259076D01*
X22614928Y-29282638D01*
X22527788Y-29266824D01*
X22456139Y-29214768D01*
X22445006Y-29200807D01*
X22366108Y-29092213D01*
X22366102Y-29092206D01*
X22215789Y-28941893D01*
X22130143Y-28879669D01*
X22043816Y-28816949D01*
X22003292Y-28796301D01*
X21854418Y-28720445D01*
X21854407Y-28720441D01*
X21652251Y-28654756D01*
X21652234Y-28654752D01*
X21442287Y-28621500D01*
X21229713Y-28621500D01*
X21019765Y-28654752D01*
X21019748Y-28654756D01*
X20817592Y-28720441D01*
X20817581Y-28720445D01*
X20628187Y-28816947D01*
X20456210Y-28941893D01*
X20305897Y-29092206D01*
X20305891Y-29092213D01*
X20226994Y-29200807D01*
X20160300Y-29259076D01*
X20074928Y-29282638D01*
X19987788Y-29266824D01*
X19916139Y-29214768D01*
X19905006Y-29200807D01*
X19826108Y-29092213D01*
X19826102Y-29092206D01*
X19675789Y-28941893D01*
X19590143Y-28879669D01*
X19503816Y-28816949D01*
X19463292Y-28796301D01*
X19314418Y-28720445D01*
X19314407Y-28720441D01*
X19112251Y-28654756D01*
X19112234Y-28654752D01*
X18902287Y-28621500D01*
X18689713Y-28621500D01*
X18479765Y-28654752D01*
X18479748Y-28654756D01*
X18277592Y-28720441D01*
X18277581Y-28720445D01*
X18088187Y-28816947D01*
X17916210Y-28941893D01*
X17765893Y-29092210D01*
X17640947Y-29264187D01*
X17544445Y-29453581D01*
X17544441Y-29453592D01*
X17478756Y-29655748D01*
X17478752Y-29655765D01*
X17445500Y-29865713D01*
X17445500Y-30078286D01*
X17478752Y-30288234D01*
X17478756Y-30288251D01*
X17544441Y-30490407D01*
X17544445Y-30490418D01*
X17580402Y-30560986D01*
X17640949Y-30679816D01*
X17703584Y-30766026D01*
X17765893Y-30851789D01*
X17916206Y-31002102D01*
X17916213Y-31002108D01*
X18024807Y-31081006D01*
X18083076Y-31147700D01*
X18106638Y-31233072D01*
X18090824Y-31320212D01*
X18038768Y-31391861D01*
X18024807Y-31402994D01*
X17916213Y-31481891D01*
X17916206Y-31481897D01*
X17765893Y-31632210D01*
X17640947Y-31804187D01*
X17544445Y-31993581D01*
X17544441Y-31993592D01*
X17478756Y-32195748D01*
X17478752Y-32195765D01*
X17445500Y-32405713D01*
X17445500Y-32618286D01*
X17478752Y-32828234D01*
X17478756Y-32828251D01*
X17544441Y-33030407D01*
X17544445Y-33030418D01*
X17620509Y-33179700D01*
X17640949Y-33219816D01*
X17680316Y-33274000D01*
X17765893Y-33391789D01*
X17916210Y-33542106D01*
X17970688Y-33581685D01*
X18088184Y-33667051D01*
X18179589Y-33713624D01*
X18277581Y-33763554D01*
X18277584Y-33763555D01*
X18277588Y-33763557D01*
X18479757Y-33829246D01*
X18689713Y-33862500D01*
X18902287Y-33862500D01*
X19112243Y-33829246D01*
X19314412Y-33763557D01*
X19503816Y-33667051D01*
X19675792Y-33542104D01*
X19826104Y-33391792D01*
X19905005Y-33283192D01*
X19971699Y-33224923D01*
X20057071Y-33201361D01*
X20144211Y-33217175D01*
X20215861Y-33269230D01*
X20226992Y-33283189D01*
X20305894Y-33391789D01*
X20305897Y-33391793D01*
X20456210Y-33542106D01*
X20510688Y-33581685D01*
X20628184Y-33667051D01*
X20719589Y-33713624D01*
X20817581Y-33763554D01*
X20817584Y-33763555D01*
X20817588Y-33763557D01*
X21019757Y-33829246D01*
X21229713Y-33862500D01*
X21442287Y-33862500D01*
X21652243Y-33829246D01*
X21854412Y-33763557D01*
X22043816Y-33667051D01*
X22215792Y-33542104D01*
X22366104Y-33391792D01*
X22445005Y-33283192D01*
X22511699Y-33224923D01*
X22597071Y-33201361D01*
X22684211Y-33217175D01*
X22755861Y-33269230D01*
X22766992Y-33283189D01*
X22845894Y-33391789D01*
X22845897Y-33391793D01*
X22996210Y-33542106D01*
X23050688Y-33581685D01*
X23168184Y-33667051D01*
X23259589Y-33713624D01*
X23357581Y-33763554D01*
X23357584Y-33763555D01*
X23357588Y-33763557D01*
X23559757Y-33829246D01*
X23769713Y-33862500D01*
X23982287Y-33862500D01*
X24192243Y-33829246D01*
X24394412Y-33763557D01*
X24583816Y-33667051D01*
X24755792Y-33542104D01*
X24906104Y-33391792D01*
X24985005Y-33283192D01*
X25051699Y-33224923D01*
X25137071Y-33201361D01*
X25224211Y-33217175D01*
X25295861Y-33269230D01*
X25306992Y-33283189D01*
X25385894Y-33391789D01*
X25385897Y-33391793D01*
X25536210Y-33542106D01*
X25590688Y-33581685D01*
X25708184Y-33667051D01*
X25799589Y-33713624D01*
X25897581Y-33763554D01*
X25897584Y-33763555D01*
X25897588Y-33763557D01*
X26099757Y-33829246D01*
X26309713Y-33862500D01*
X26522287Y-33862500D01*
X26732243Y-33829246D01*
X26934412Y-33763557D01*
X27123816Y-33667051D01*
X27295792Y-33542104D01*
X27446104Y-33391792D01*
X27525005Y-33283192D01*
X27591699Y-33224923D01*
X27677071Y-33201361D01*
X27764211Y-33217175D01*
X27835861Y-33269230D01*
X27846992Y-33283189D01*
X27925894Y-33391789D01*
X27925897Y-33391793D01*
X28076210Y-33542106D01*
X28130688Y-33581685D01*
X28248184Y-33667051D01*
X28339589Y-33713624D01*
X28437581Y-33763554D01*
X28437584Y-33763555D01*
X28437588Y-33763557D01*
X28639757Y-33829246D01*
X28849713Y-33862500D01*
X29062287Y-33862500D01*
X29272243Y-33829246D01*
X29474412Y-33763557D01*
X29663816Y-33667051D01*
X29835792Y-33542104D01*
X29986104Y-33391792D01*
X30065005Y-33283192D01*
X30131699Y-33224923D01*
X30217071Y-33201361D01*
X30304211Y-33217175D01*
X30375861Y-33269230D01*
X30386992Y-33283189D01*
X30465894Y-33391789D01*
X30465897Y-33391793D01*
X30616210Y-33542106D01*
X30670688Y-33581685D01*
X30788184Y-33667051D01*
X30879589Y-33713624D01*
X30977581Y-33763554D01*
X30977584Y-33763555D01*
X30977588Y-33763557D01*
X31179757Y-33829246D01*
X31389713Y-33862500D01*
X31602287Y-33862500D01*
X31812243Y-33829246D01*
X32014412Y-33763557D01*
X32203816Y-33667051D01*
X32375792Y-33542104D01*
X32526104Y-33391792D01*
X32605005Y-33283192D01*
X32671699Y-33224923D01*
X32757071Y-33201361D01*
X32844211Y-33217175D01*
X32915861Y-33269230D01*
X32926992Y-33283189D01*
X33005894Y-33391789D01*
X33005897Y-33391793D01*
X33156210Y-33542106D01*
X33210688Y-33581685D01*
X33328184Y-33667051D01*
X33419589Y-33713624D01*
X33517581Y-33763554D01*
X33517584Y-33763555D01*
X33517588Y-33763557D01*
X33719757Y-33829246D01*
X33929713Y-33862500D01*
X34142287Y-33862500D01*
X34352243Y-33829246D01*
X34554412Y-33763557D01*
X34743816Y-33667051D01*
X34915792Y-33542104D01*
X35066104Y-33391792D01*
X35145005Y-33283192D01*
X35211699Y-33224923D01*
X35297071Y-33201361D01*
X35384211Y-33217175D01*
X35455861Y-33269230D01*
X35466992Y-33283189D01*
X35545894Y-33391789D01*
X35545897Y-33391793D01*
X35696210Y-33542106D01*
X35750688Y-33581685D01*
X35868184Y-33667051D01*
X35959589Y-33713624D01*
X36057581Y-33763554D01*
X36057584Y-33763555D01*
X36057588Y-33763557D01*
X36259757Y-33829246D01*
X36469713Y-33862500D01*
X36682287Y-33862500D01*
X36892243Y-33829246D01*
X37094412Y-33763557D01*
X37283816Y-33667051D01*
X37455792Y-33542104D01*
X37487193Y-33510702D01*
X37562179Y-33463584D01*
X37650185Y-33453667D01*
X37733779Y-33482916D01*
X37796404Y-33545539D01*
X37814359Y-33581869D01*
X37822647Y-33604090D01*
X37908810Y-33719189D01*
X38023909Y-33805352D01*
X38023912Y-33805353D01*
X38158618Y-33855596D01*
X38158627Y-33855598D01*
X38218177Y-33862000D01*
X38866000Y-33862000D01*
X38866000Y-32945012D01*
X38923007Y-32977925D01*
X39050174Y-33012000D01*
X39181826Y-33012000D01*
X39308993Y-32977925D01*
X39366000Y-32945012D01*
X39366000Y-33862000D01*
X40013823Y-33862000D01*
X40073372Y-33855598D01*
X40073381Y-33855596D01*
X40208087Y-33805353D01*
X40208090Y-33805352D01*
X40323189Y-33719189D01*
X40409352Y-33604090D01*
X40409353Y-33604087D01*
X40459596Y-33469381D01*
X40459598Y-33469372D01*
X40466000Y-33409822D01*
X40466000Y-32762000D01*
X39549012Y-32762000D01*
X39581925Y-32704993D01*
X39616000Y-32577826D01*
X39616000Y-32446174D01*
X39581925Y-32319007D01*
X39549012Y-32262000D01*
X40466000Y-32262000D01*
X40466000Y-31614177D01*
X40459598Y-31554627D01*
X40459596Y-31554618D01*
X40409353Y-31419912D01*
X40409352Y-31419910D01*
X40365756Y-31361672D01*
X40329789Y-31280741D01*
X40332499Y-31192220D01*
X40343916Y-31160037D01*
X40352838Y-31140415D01*
X40409796Y-31064331D01*
X40449509Y-30957854D01*
X49236295Y-30957854D01*
X49236295Y-31162555D01*
X49268317Y-31364734D01*
X49268318Y-31364741D01*
X49331572Y-31559417D01*
X49331580Y-31559436D01*
X49424501Y-31741804D01*
X49424507Y-31741814D01*
X49471739Y-31806824D01*
X49544829Y-31907424D01*
X49689576Y-32052171D01*
X49771788Y-32111901D01*
X49855185Y-32172492D01*
X49855195Y-32172498D01*
X50037563Y-32265419D01*
X50037570Y-32265421D01*
X50037576Y-32265425D01*
X50232261Y-32328682D01*
X50434443Y-32360705D01*
X50434444Y-32360705D01*
X50639146Y-32360705D01*
X50639147Y-32360705D01*
X50841329Y-32328682D01*
X51036014Y-32265425D01*
X51042736Y-32262000D01*
X51218394Y-32172498D01*
X51218398Y-32172495D01*
X51218405Y-32172492D01*
X51384014Y-32052171D01*
X51528761Y-31907424D01*
X51649082Y-31741815D01*
X51742015Y-31559424D01*
X51805272Y-31364739D01*
X51837295Y-31162557D01*
X51837295Y-30957854D01*
X53853601Y-30957854D01*
X53853601Y-31162555D01*
X53885623Y-31364734D01*
X53885624Y-31364741D01*
X53948878Y-31559417D01*
X53948886Y-31559436D01*
X54041807Y-31741804D01*
X54041813Y-31741814D01*
X54089045Y-31806824D01*
X54162135Y-31907424D01*
X54306882Y-32052171D01*
X54389094Y-32111901D01*
X54472491Y-32172492D01*
X54472501Y-32172498D01*
X54654869Y-32265419D01*
X54654876Y-32265421D01*
X54654882Y-32265425D01*
X54849567Y-32328682D01*
X55051749Y-32360705D01*
X55051750Y-32360705D01*
X55256452Y-32360705D01*
X55256453Y-32360705D01*
X55458635Y-32328682D01*
X55653320Y-32265425D01*
X55660042Y-32262000D01*
X55835700Y-32172498D01*
X55835704Y-32172495D01*
X55835711Y-32172492D01*
X56001320Y-32052171D01*
X56146067Y-31907424D01*
X56266388Y-31741815D01*
X56359321Y-31559424D01*
X56422578Y-31364739D01*
X56454601Y-31162557D01*
X56454601Y-30957853D01*
X56422578Y-30755671D01*
X56359321Y-30560986D01*
X56359317Y-30560980D01*
X56359315Y-30560973D01*
X56266394Y-30378605D01*
X56266388Y-30378595D01*
X56146068Y-30212988D01*
X56146067Y-30212986D01*
X56001320Y-30068239D01*
X55835711Y-29947918D01*
X55835712Y-29947918D01*
X55835710Y-29947917D01*
X55835700Y-29947911D01*
X55653332Y-29854990D01*
X55653313Y-29854982D01*
X55458637Y-29791728D01*
X55458630Y-29791727D01*
X55343836Y-29773545D01*
X55256453Y-29759705D01*
X55051749Y-29759705D01*
X54990736Y-29769368D01*
X54849571Y-29791727D01*
X54849564Y-29791728D01*
X54654888Y-29854982D01*
X54654869Y-29854990D01*
X54472501Y-29947911D01*
X54472491Y-29947917D01*
X54306884Y-30068237D01*
X54306880Y-30068240D01*
X54162136Y-30212984D01*
X54162133Y-30212988D01*
X54041813Y-30378595D01*
X54041807Y-30378605D01*
X53948886Y-30560973D01*
X53948878Y-30560992D01*
X53885624Y-30755668D01*
X53885623Y-30755675D01*
X53867537Y-30869866D01*
X53858095Y-30929483D01*
X53853601Y-30957854D01*
X51837295Y-30957854D01*
X51837295Y-30957853D01*
X51805272Y-30755671D01*
X51742015Y-30560986D01*
X51742011Y-30560980D01*
X51742009Y-30560973D01*
X51649088Y-30378605D01*
X51649082Y-30378595D01*
X51528762Y-30212988D01*
X51528761Y-30212986D01*
X51384014Y-30068239D01*
X51218405Y-29947918D01*
X51218406Y-29947918D01*
X51218404Y-29947917D01*
X51218394Y-29947911D01*
X51036026Y-29854990D01*
X51036007Y-29854982D01*
X50841331Y-29791728D01*
X50841324Y-29791727D01*
X50726530Y-29773545D01*
X50639147Y-29759705D01*
X50434443Y-29759705D01*
X50373430Y-29769368D01*
X50232265Y-29791727D01*
X50232258Y-29791728D01*
X50037582Y-29854982D01*
X50037563Y-29854990D01*
X49855195Y-29947911D01*
X49855185Y-29947917D01*
X49689578Y-30068237D01*
X49689574Y-30068240D01*
X49544830Y-30212984D01*
X49544827Y-30212988D01*
X49424507Y-30378595D01*
X49424501Y-30378605D01*
X49331580Y-30560973D01*
X49331572Y-30560992D01*
X49268318Y-30755668D01*
X49268317Y-30755675D01*
X49250231Y-30869866D01*
X49240789Y-30929483D01*
X49236295Y-30957854D01*
X40449509Y-30957854D01*
X40460091Y-30929483D01*
X40466500Y-30869873D01*
X40466499Y-29074128D01*
X40466499Y-29074127D01*
X40466499Y-29074123D01*
X40460091Y-29014518D01*
X40433006Y-28941897D01*
X40409796Y-28879669D01*
X40365755Y-28820838D01*
X40329789Y-28739911D01*
X40332497Y-28651389D01*
X40353631Y-28600528D01*
X40373909Y-28566127D01*
X69261500Y-28566127D01*
X69261500Y-28566128D01*
X69261500Y-28566132D01*
X69261500Y-30361876D01*
X69267908Y-30421481D01*
X69318203Y-30556329D01*
X69318207Y-30556335D01*
X69404453Y-30671546D01*
X69422323Y-30684923D01*
X69519669Y-30757796D01*
X69541738Y-30766027D01*
X69615750Y-30814665D01*
X69661329Y-30890600D01*
X69669448Y-30978790D01*
X69638498Y-31061769D01*
X69612911Y-31093192D01*
X69581893Y-31124210D01*
X69456947Y-31296187D01*
X69360445Y-31485581D01*
X69360441Y-31485592D01*
X69294756Y-31687748D01*
X69294752Y-31687765D01*
X69261500Y-31897713D01*
X69261500Y-32110286D01*
X69294752Y-32320234D01*
X69294756Y-32320251D01*
X69360441Y-32522407D01*
X69360445Y-32522418D01*
X69412539Y-32624657D01*
X69456949Y-32711816D01*
X69493410Y-32762000D01*
X69581893Y-32883789D01*
X69732206Y-33034102D01*
X69732213Y-33034108D01*
X69840807Y-33113006D01*
X69899076Y-33179700D01*
X69922638Y-33265072D01*
X69906824Y-33352212D01*
X69854768Y-33423861D01*
X69840807Y-33434994D01*
X69732213Y-33513891D01*
X69732206Y-33513897D01*
X69581893Y-33664210D01*
X69456947Y-33836187D01*
X69360445Y-34025581D01*
X69360441Y-34025592D01*
X69294756Y-34227748D01*
X69294752Y-34227765D01*
X69261500Y-34437713D01*
X69261500Y-34650286D01*
X69294752Y-34860234D01*
X69294756Y-34860251D01*
X69360441Y-35062407D01*
X69360445Y-35062418D01*
X69429198Y-35197352D01*
X69456949Y-35251816D01*
X69517149Y-35334675D01*
X69581893Y-35423789D01*
X69732206Y-35574102D01*
X69732213Y-35574108D01*
X69840807Y-35653006D01*
X69899076Y-35719700D01*
X69922638Y-35805072D01*
X69906824Y-35892212D01*
X69854768Y-35963861D01*
X69840807Y-35974994D01*
X69732213Y-36053891D01*
X69732206Y-36053897D01*
X69581893Y-36204210D01*
X69456947Y-36376187D01*
X69360445Y-36565581D01*
X69360441Y-36565592D01*
X69294756Y-36767748D01*
X69294752Y-36767765D01*
X69261500Y-36977713D01*
X69261500Y-37190286D01*
X69294752Y-37400234D01*
X69294756Y-37400251D01*
X69360441Y-37602407D01*
X69360445Y-37602418D01*
X69433156Y-37745120D01*
X69456949Y-37791816D01*
X69468980Y-37808375D01*
X69581893Y-37963789D01*
X69732210Y-38114106D01*
X69786688Y-38153685D01*
X69904184Y-38239051D01*
X69995589Y-38285624D01*
X70093581Y-38335554D01*
X70093584Y-38335555D01*
X70093588Y-38335557D01*
X70295757Y-38401246D01*
X70505713Y-38434500D01*
X70718287Y-38434500D01*
X70928243Y-38401246D01*
X71130412Y-38335557D01*
X71319816Y-38239051D01*
X71491792Y-38114104D01*
X71642104Y-37963792D01*
X71767051Y-37791816D01*
X71863557Y-37602412D01*
X71929246Y-37400243D01*
X71962500Y-37190287D01*
X71962500Y-36977713D01*
X71929246Y-36767757D01*
X71863557Y-36565588D01*
X71863555Y-36565584D01*
X71863554Y-36565581D01*
X71798316Y-36437545D01*
X71767051Y-36376184D01*
X71664740Y-36235364D01*
X71642106Y-36204210D01*
X71491793Y-36053897D01*
X71491789Y-36053894D01*
X71383193Y-35974995D01*
X71324923Y-35908301D01*
X71301361Y-35822929D01*
X71317175Y-35735789D01*
X71369230Y-35664139D01*
X71383193Y-35653005D01*
X71491792Y-35574104D01*
X71642104Y-35423792D01*
X71767051Y-35251816D01*
X71863557Y-35062412D01*
X71929246Y-34860243D01*
X71962500Y-34650287D01*
X71962500Y-34437713D01*
X71929246Y-34227757D01*
X71863557Y-34025588D01*
X71863555Y-34025584D01*
X71863554Y-34025581D01*
X71813624Y-33927589D01*
X71767051Y-33836184D01*
X71681685Y-33718688D01*
X71642106Y-33664210D01*
X71491793Y-33513897D01*
X71491789Y-33513894D01*
X71491785Y-33513891D01*
X71383192Y-33434994D01*
X71324923Y-33368301D01*
X71301361Y-33282929D01*
X71317175Y-33195789D01*
X71369230Y-33124139D01*
X71383193Y-33113005D01*
X71491792Y-33034104D01*
X71642104Y-32883792D01*
X71767051Y-32711816D01*
X71863557Y-32522412D01*
X71929246Y-32320243D01*
X71962500Y-32110287D01*
X71962500Y-31897713D01*
X71929246Y-31687757D01*
X71863557Y-31485588D01*
X71863555Y-31485584D01*
X71863554Y-31485581D01*
X71798012Y-31356949D01*
X71767051Y-31296184D01*
X71644170Y-31127051D01*
X71642106Y-31124210D01*
X71611090Y-31093194D01*
X71563971Y-31018206D01*
X71554055Y-30930199D01*
X71583306Y-30846606D01*
X71645930Y-30783982D01*
X71682252Y-30766030D01*
X71704331Y-30757796D01*
X71819546Y-30671546D01*
X71905796Y-30556331D01*
X71956091Y-30421483D01*
X71962500Y-30361873D01*
X71962499Y-28566128D01*
X71962499Y-28566127D01*
X71962499Y-28566123D01*
X71956091Y-28506518D01*
X71944276Y-28474838D01*
X71905796Y-28371669D01*
X71860970Y-28311789D01*
X71819546Y-28256453D01*
X71704335Y-28170207D01*
X71704331Y-28170204D01*
X71569483Y-28119909D01*
X71509873Y-28113500D01*
X71509867Y-28113500D01*
X69714123Y-28113500D01*
X69654518Y-28119908D01*
X69519670Y-28170203D01*
X69519664Y-28170207D01*
X69404453Y-28256453D01*
X69318207Y-28371664D01*
X69318204Y-28371669D01*
X69267909Y-28506517D01*
X69261500Y-28566127D01*
X40373909Y-28566127D01*
X40427721Y-28474838D01*
X40459597Y-28389374D01*
X40459598Y-28389372D01*
X40466000Y-28329822D01*
X40466000Y-27682000D01*
X39549012Y-27682000D01*
X39581925Y-27624993D01*
X39616000Y-27497826D01*
X39616000Y-27366174D01*
X39581925Y-27239007D01*
X39549012Y-27182000D01*
X40466000Y-27182000D01*
X40466000Y-26603752D01*
X56901601Y-26603752D01*
X56901601Y-26808453D01*
X56933623Y-27010632D01*
X56933624Y-27010639D01*
X56996878Y-27205315D01*
X56996886Y-27205334D01*
X57089807Y-27387702D01*
X57089813Y-27387712D01*
X57089814Y-27387713D01*
X57210135Y-27553322D01*
X57354882Y-27698069D01*
X57520491Y-27818390D01*
X57520501Y-27818396D01*
X57702869Y-27911317D01*
X57702876Y-27911319D01*
X57702882Y-27911323D01*
X57897567Y-27974580D01*
X58099749Y-28006603D01*
X58099750Y-28006603D01*
X58304452Y-28006603D01*
X58304453Y-28006603D01*
X58506635Y-27974580D01*
X58701320Y-27911323D01*
X58856806Y-27832099D01*
X58883700Y-27818396D01*
X58883704Y-27818393D01*
X58883711Y-27818390D01*
X59049320Y-27698069D01*
X59194067Y-27553322D01*
X59314388Y-27387713D01*
X59317809Y-27381000D01*
X59407315Y-27205334D01*
X59407315Y-27205332D01*
X59407321Y-27205322D01*
X59470578Y-27010637D01*
X59502601Y-26808455D01*
X59502601Y-26603751D01*
X59470578Y-26401569D01*
X59408089Y-26209247D01*
X59407323Y-26206890D01*
X59407322Y-26206889D01*
X59407321Y-26206884D01*
X59407317Y-26206878D01*
X59407315Y-26206871D01*
X59314394Y-26024503D01*
X59314388Y-26024493D01*
X59285208Y-25984330D01*
X59194067Y-25858884D01*
X59049320Y-25714137D01*
X58979201Y-25663193D01*
X58883710Y-25593815D01*
X58883700Y-25593809D01*
X58701332Y-25500888D01*
X58701313Y-25500880D01*
X58506637Y-25437626D01*
X58506630Y-25437625D01*
X58334815Y-25410412D01*
X58304453Y-25405603D01*
X58099749Y-25405603D01*
X58069387Y-25410412D01*
X57897571Y-25437625D01*
X57897564Y-25437626D01*
X57702888Y-25500880D01*
X57702869Y-25500888D01*
X57520501Y-25593809D01*
X57520491Y-25593815D01*
X57354884Y-25714135D01*
X57354880Y-25714138D01*
X57210136Y-25858882D01*
X57210133Y-25858886D01*
X57089813Y-26024493D01*
X57089807Y-26024503D01*
X56996886Y-26206871D01*
X56996878Y-26206890D01*
X56933624Y-26401566D01*
X56933623Y-26401573D01*
X56901601Y-26603752D01*
X40466000Y-26603752D01*
X40466000Y-26534177D01*
X40459598Y-26474627D01*
X40459596Y-26474618D01*
X40409353Y-26339912D01*
X40409352Y-26339910D01*
X40365756Y-26281672D01*
X40329789Y-26200741D01*
X40332499Y-26112220D01*
X40365758Y-26043158D01*
X40409792Y-25984336D01*
X40409796Y-25984331D01*
X40460091Y-25849483D01*
X40466500Y-25789873D01*
X40466499Y-23994128D01*
X40466499Y-23994127D01*
X40466499Y-23994123D01*
X40460091Y-23934518D01*
X40454115Y-23918496D01*
X40409796Y-23799669D01*
X40390317Y-23773648D01*
X42052092Y-23773648D01*
X42052092Y-23978352D01*
X42066578Y-24069809D01*
X42084114Y-24180529D01*
X42084115Y-24180536D01*
X42147369Y-24375212D01*
X42147377Y-24375231D01*
X42240298Y-24557599D01*
X42240304Y-24557609D01*
X42240305Y-24557610D01*
X42360626Y-24723219D01*
X42505373Y-24867966D01*
X42670982Y-24988287D01*
X42670992Y-24988293D01*
X42853360Y-25081214D01*
X42853367Y-25081216D01*
X42853373Y-25081220D01*
X43048058Y-25144477D01*
X43250240Y-25176500D01*
X43250241Y-25176500D01*
X43454943Y-25176500D01*
X43454944Y-25176500D01*
X43657126Y-25144477D01*
X43851811Y-25081220D01*
X43854694Y-25079751D01*
X44034191Y-24988293D01*
X44034195Y-24988290D01*
X44034202Y-24988287D01*
X44199811Y-24867966D01*
X44344558Y-24723219D01*
X44464879Y-24557610D01*
X44483936Y-24520210D01*
X44557806Y-24375231D01*
X44557806Y-24375229D01*
X44557812Y-24375219D01*
X44621069Y-24180534D01*
X44653092Y-23978352D01*
X44653092Y-23773648D01*
X46669398Y-23773648D01*
X46669398Y-23978352D01*
X46683884Y-24069809D01*
X46701420Y-24180529D01*
X46701421Y-24180536D01*
X46764675Y-24375212D01*
X46764683Y-24375231D01*
X46857604Y-24557599D01*
X46857610Y-24557609D01*
X46857611Y-24557610D01*
X46977932Y-24723219D01*
X47122679Y-24867966D01*
X47288288Y-24988287D01*
X47288298Y-24988293D01*
X47470666Y-25081214D01*
X47470673Y-25081216D01*
X47470679Y-25081220D01*
X47665364Y-25144477D01*
X47867546Y-25176500D01*
X47867547Y-25176500D01*
X48072249Y-25176500D01*
X48072250Y-25176500D01*
X48274432Y-25144477D01*
X48469117Y-25081220D01*
X48472000Y-25079751D01*
X59949601Y-25079751D01*
X59949601Y-25284455D01*
X59960561Y-25353650D01*
X59981623Y-25486632D01*
X59981624Y-25486639D01*
X60044878Y-25681315D01*
X60044886Y-25681334D01*
X60137807Y-25863702D01*
X60137813Y-25863712D01*
X60137814Y-25863713D01*
X60258135Y-26029322D01*
X60402882Y-26174069D01*
X60451301Y-26209247D01*
X60568491Y-26294390D01*
X60568501Y-26294396D01*
X60750869Y-26387317D01*
X60750876Y-26387319D01*
X60750882Y-26387323D01*
X60945567Y-26450580D01*
X61147749Y-26482603D01*
X61147750Y-26482603D01*
X61352452Y-26482603D01*
X61352453Y-26482603D01*
X61554635Y-26450580D01*
X61749320Y-26387323D01*
X61749332Y-26387317D01*
X61931700Y-26294396D01*
X61931704Y-26294393D01*
X61931711Y-26294390D01*
X62097320Y-26174069D01*
X62242067Y-26029322D01*
X62362388Y-25863713D01*
X62364848Y-25858886D01*
X62455315Y-25681334D01*
X62455315Y-25681332D01*
X62455321Y-25681322D01*
X62518578Y-25486637D01*
X62550601Y-25284455D01*
X62550601Y-25079751D01*
X62518578Y-24877569D01*
X62455321Y-24682884D01*
X62455317Y-24682878D01*
X62455315Y-24682871D01*
X62362394Y-24500503D01*
X62362388Y-24500493D01*
X62311426Y-24430349D01*
X62242067Y-24334884D01*
X62097320Y-24190137D01*
X62026838Y-24138929D01*
X61931710Y-24069815D01*
X61931700Y-24069809D01*
X61749332Y-23976888D01*
X61749313Y-23976880D01*
X61554637Y-23913626D01*
X61554630Y-23913625D01*
X61423835Y-23892909D01*
X61352453Y-23881603D01*
X61147749Y-23881603D01*
X61086736Y-23891266D01*
X60945571Y-23913625D01*
X60945564Y-23913626D01*
X60750888Y-23976880D01*
X60750869Y-23976888D01*
X60568501Y-24069809D01*
X60568491Y-24069815D01*
X60402884Y-24190135D01*
X60402880Y-24190138D01*
X60258136Y-24334882D01*
X60258133Y-24334886D01*
X60137813Y-24500493D01*
X60137807Y-24500503D01*
X60044886Y-24682871D01*
X60044878Y-24682890D01*
X59981624Y-24877566D01*
X59981623Y-24877573D01*
X59964088Y-24988287D01*
X59949601Y-25079751D01*
X48472000Y-25079751D01*
X48651497Y-24988293D01*
X48651501Y-24988290D01*
X48651508Y-24988287D01*
X48817117Y-24867966D01*
X48961864Y-24723219D01*
X49082185Y-24557610D01*
X49101242Y-24520210D01*
X49175112Y-24375231D01*
X49175112Y-24375229D01*
X49175118Y-24375219D01*
X49238375Y-24180534D01*
X49270398Y-23978352D01*
X49270398Y-23773648D01*
X49238375Y-23571466D01*
X49233268Y-23555749D01*
X62743603Y-23555749D01*
X62743603Y-23760453D01*
X62749815Y-23799673D01*
X62775625Y-23962630D01*
X62775626Y-23962637D01*
X62838880Y-24157313D01*
X62838888Y-24157332D01*
X62931809Y-24339700D01*
X62931815Y-24339710D01*
X62997668Y-24430349D01*
X63052137Y-24505320D01*
X63196884Y-24650067D01*
X63362493Y-24770388D01*
X63362503Y-24770394D01*
X63544871Y-24863315D01*
X63544878Y-24863317D01*
X63544884Y-24863321D01*
X63544889Y-24863322D01*
X63544890Y-24863323D01*
X63588735Y-24877569D01*
X63739569Y-24926578D01*
X63941751Y-24958601D01*
X63941752Y-24958601D01*
X64146454Y-24958601D01*
X64146455Y-24958601D01*
X64348637Y-24926578D01*
X64543322Y-24863321D01*
X64543334Y-24863315D01*
X64725702Y-24770394D01*
X64725706Y-24770391D01*
X64725713Y-24770388D01*
X64891322Y-24650067D01*
X65036069Y-24505320D01*
X65156390Y-24339711D01*
X65158849Y-24334886D01*
X65249317Y-24157332D01*
X65249317Y-24157330D01*
X65249323Y-24157320D01*
X65312580Y-23962635D01*
X65344603Y-23760453D01*
X65344603Y-23555749D01*
X65312580Y-23353567D01*
X65291494Y-23288672D01*
X65249325Y-23158888D01*
X65249324Y-23158887D01*
X65249323Y-23158882D01*
X65249319Y-23158876D01*
X65249317Y-23158869D01*
X65156396Y-22976501D01*
X65156390Y-22976491D01*
X65089217Y-22884035D01*
X65036069Y-22810882D01*
X64891322Y-22666135D01*
X64810649Y-22607523D01*
X64725712Y-22545813D01*
X64725702Y-22545807D01*
X64543334Y-22452886D01*
X64543315Y-22452878D01*
X64348639Y-22389624D01*
X64348632Y-22389623D01*
X64233838Y-22371441D01*
X64146455Y-22357601D01*
X63941751Y-22357601D01*
X63880738Y-22367264D01*
X63739573Y-22389623D01*
X63739566Y-22389624D01*
X63544890Y-22452878D01*
X63544871Y-22452886D01*
X63362503Y-22545807D01*
X63362493Y-22545813D01*
X63196886Y-22666133D01*
X63196882Y-22666136D01*
X63052138Y-22810880D01*
X63052135Y-22810884D01*
X62931815Y-22976491D01*
X62931809Y-22976501D01*
X62838888Y-23158869D01*
X62838880Y-23158888D01*
X62775626Y-23353564D01*
X62775625Y-23353571D01*
X62771691Y-23378412D01*
X62743603Y-23555749D01*
X49233268Y-23555749D01*
X49175118Y-23376781D01*
X49175114Y-23376775D01*
X49175112Y-23376768D01*
X49082191Y-23194400D01*
X49082185Y-23194390D01*
X49069006Y-23176251D01*
X48961864Y-23028781D01*
X48817117Y-22884034D01*
X48651508Y-22763713D01*
X48651509Y-22763713D01*
X48651507Y-22763712D01*
X48651497Y-22763706D01*
X48469129Y-22670785D01*
X48469110Y-22670777D01*
X48274434Y-22607523D01*
X48274427Y-22607522D01*
X48159633Y-22589340D01*
X48072250Y-22575500D01*
X47867546Y-22575500D01*
X47806533Y-22585163D01*
X47665368Y-22607522D01*
X47665361Y-22607523D01*
X47470685Y-22670777D01*
X47470666Y-22670785D01*
X47288298Y-22763706D01*
X47288288Y-22763712D01*
X47122681Y-22884032D01*
X47122677Y-22884035D01*
X46977933Y-23028779D01*
X46977930Y-23028783D01*
X46857610Y-23194390D01*
X46857604Y-23194400D01*
X46764683Y-23376768D01*
X46764675Y-23376787D01*
X46701421Y-23571463D01*
X46701420Y-23571470D01*
X46683525Y-23684453D01*
X46669398Y-23773648D01*
X44653092Y-23773648D01*
X44621069Y-23571466D01*
X44557812Y-23376781D01*
X44557808Y-23376775D01*
X44557806Y-23376768D01*
X44464885Y-23194400D01*
X44464879Y-23194390D01*
X44451700Y-23176251D01*
X44344558Y-23028781D01*
X44199811Y-22884034D01*
X44034202Y-22763713D01*
X44034203Y-22763713D01*
X44034201Y-22763712D01*
X44034191Y-22763706D01*
X43851823Y-22670785D01*
X43851804Y-22670777D01*
X43657128Y-22607523D01*
X43657121Y-22607522D01*
X43542327Y-22589340D01*
X43454944Y-22575500D01*
X43250240Y-22575500D01*
X43189227Y-22585163D01*
X43048062Y-22607522D01*
X43048055Y-22607523D01*
X42853379Y-22670777D01*
X42853360Y-22670785D01*
X42670992Y-22763706D01*
X42670982Y-22763712D01*
X42505375Y-22884032D01*
X42505371Y-22884035D01*
X42360627Y-23028779D01*
X42360624Y-23028783D01*
X42240304Y-23194390D01*
X42240298Y-23194400D01*
X42147377Y-23376768D01*
X42147369Y-23376787D01*
X42084115Y-23571463D01*
X42084114Y-23571470D01*
X42066219Y-23684453D01*
X42052092Y-23773648D01*
X40390317Y-23773648D01*
X40362844Y-23736949D01*
X40323546Y-23684453D01*
X40208335Y-23598207D01*
X40208331Y-23598204D01*
X40073483Y-23547909D01*
X40013873Y-23541500D01*
X40013867Y-23541500D01*
X38218123Y-23541500D01*
X38158518Y-23547908D01*
X38023670Y-23598203D01*
X38023664Y-23598207D01*
X37908453Y-23684453D01*
X37822207Y-23799664D01*
X37822202Y-23799673D01*
X37813970Y-23821743D01*
X37765330Y-23895754D01*
X37689395Y-23941331D01*
X37601204Y-23949447D01*
X37518225Y-23918496D01*
X37486805Y-23892909D01*
X37455789Y-23861893D01*
X37370136Y-23799664D01*
X37283816Y-23736949D01*
X37277223Y-23733590D01*
X37094418Y-23640445D01*
X37094407Y-23640441D01*
X36892251Y-23574756D01*
X36892234Y-23574752D01*
X36682287Y-23541500D01*
X36469713Y-23541500D01*
X36259765Y-23574752D01*
X36259748Y-23574756D01*
X36057592Y-23640441D01*
X36057581Y-23640445D01*
X35868187Y-23736947D01*
X35696210Y-23861893D01*
X35545897Y-24012206D01*
X35545891Y-24012213D01*
X35466994Y-24120807D01*
X35400300Y-24179076D01*
X35314928Y-24202638D01*
X35227788Y-24186824D01*
X35156139Y-24134768D01*
X35145006Y-24120807D01*
X35066108Y-24012213D01*
X35066102Y-24012206D01*
X34915789Y-23861893D01*
X34830136Y-23799664D01*
X34743816Y-23736949D01*
X34737223Y-23733590D01*
X34554418Y-23640445D01*
X34554407Y-23640441D01*
X34352251Y-23574756D01*
X34352234Y-23574752D01*
X34142287Y-23541500D01*
X33929713Y-23541500D01*
X33719765Y-23574752D01*
X33719748Y-23574756D01*
X33517592Y-23640441D01*
X33517581Y-23640445D01*
X33328187Y-23736947D01*
X33156210Y-23861893D01*
X33005897Y-24012206D01*
X33005891Y-24012213D01*
X32926994Y-24120807D01*
X32860300Y-24179076D01*
X32774928Y-24202638D01*
X32687788Y-24186824D01*
X32616139Y-24134768D01*
X32605006Y-24120807D01*
X32526108Y-24012213D01*
X32526102Y-24012206D01*
X32375789Y-23861893D01*
X32290136Y-23799664D01*
X32203816Y-23736949D01*
X32197223Y-23733590D01*
X32014418Y-23640445D01*
X32014407Y-23640441D01*
X31812251Y-23574756D01*
X31812234Y-23574752D01*
X31602287Y-23541500D01*
X31389713Y-23541500D01*
X31179765Y-23574752D01*
X31179748Y-23574756D01*
X30977592Y-23640441D01*
X30977581Y-23640445D01*
X30788187Y-23736947D01*
X30616210Y-23861893D01*
X30465897Y-24012206D01*
X30465891Y-24012213D01*
X30386994Y-24120807D01*
X30320300Y-24179076D01*
X30234928Y-24202638D01*
X30147788Y-24186824D01*
X30076139Y-24134768D01*
X30065006Y-24120807D01*
X29986108Y-24012213D01*
X29986102Y-24012206D01*
X29835789Y-23861893D01*
X29750136Y-23799664D01*
X29663816Y-23736949D01*
X29657223Y-23733590D01*
X29474418Y-23640445D01*
X29474407Y-23640441D01*
X29272251Y-23574756D01*
X29272234Y-23574752D01*
X29062287Y-23541500D01*
X28849713Y-23541500D01*
X28639765Y-23574752D01*
X28639748Y-23574756D01*
X28437592Y-23640441D01*
X28437581Y-23640445D01*
X28248187Y-23736947D01*
X28076210Y-23861893D01*
X27925897Y-24012206D01*
X27925891Y-24012213D01*
X27846994Y-24120807D01*
X27780300Y-24179076D01*
X27694928Y-24202638D01*
X27607788Y-24186824D01*
X27536139Y-24134768D01*
X27525006Y-24120807D01*
X27446108Y-24012213D01*
X27446102Y-24012206D01*
X27295789Y-23861893D01*
X27210136Y-23799664D01*
X27123816Y-23736949D01*
X27117223Y-23733590D01*
X26934418Y-23640445D01*
X26934407Y-23640441D01*
X26732251Y-23574756D01*
X26732234Y-23574752D01*
X26522287Y-23541500D01*
X26309713Y-23541500D01*
X26099765Y-23574752D01*
X26099748Y-23574756D01*
X25897592Y-23640441D01*
X25897581Y-23640445D01*
X25708187Y-23736947D01*
X25536210Y-23861893D01*
X25385897Y-24012206D01*
X25385891Y-24012213D01*
X25306994Y-24120807D01*
X25240300Y-24179076D01*
X25154928Y-24202638D01*
X25067788Y-24186824D01*
X24996139Y-24134768D01*
X24985006Y-24120807D01*
X24906108Y-24012213D01*
X24906102Y-24012206D01*
X24755789Y-23861893D01*
X24670136Y-23799664D01*
X24583816Y-23736949D01*
X24577223Y-23733590D01*
X24394418Y-23640445D01*
X24394407Y-23640441D01*
X24192251Y-23574756D01*
X24192234Y-23574752D01*
X23982287Y-23541500D01*
X23769713Y-23541500D01*
X23559765Y-23574752D01*
X23559748Y-23574756D01*
X23357592Y-23640441D01*
X23357581Y-23640445D01*
X23168187Y-23736947D01*
X22996210Y-23861893D01*
X22845897Y-24012206D01*
X22845891Y-24012213D01*
X22766994Y-24120807D01*
X22700300Y-24179076D01*
X22614928Y-24202638D01*
X22527788Y-24186824D01*
X22456139Y-24134768D01*
X22445006Y-24120807D01*
X22366108Y-24012213D01*
X22366102Y-24012206D01*
X22215789Y-23861893D01*
X22130136Y-23799664D01*
X22043816Y-23736949D01*
X22037223Y-23733590D01*
X21854418Y-23640445D01*
X21854407Y-23640441D01*
X21652251Y-23574756D01*
X21652234Y-23574752D01*
X21442287Y-23541500D01*
X21229713Y-23541500D01*
X21019765Y-23574752D01*
X21019748Y-23574756D01*
X20817592Y-23640441D01*
X20817581Y-23640445D01*
X20628187Y-23736947D01*
X20456210Y-23861893D01*
X20305897Y-24012206D01*
X20305891Y-24012213D01*
X20226994Y-24120807D01*
X20160300Y-24179076D01*
X20074928Y-24202638D01*
X19987788Y-24186824D01*
X19916139Y-24134768D01*
X19905006Y-24120807D01*
X19826108Y-24012213D01*
X19826102Y-24012206D01*
X19675789Y-23861893D01*
X19590136Y-23799664D01*
X19503816Y-23736949D01*
X19497223Y-23733590D01*
X19314418Y-23640445D01*
X19314407Y-23640441D01*
X19112251Y-23574756D01*
X19112234Y-23574752D01*
X18902287Y-23541500D01*
X18689713Y-23541500D01*
X18479765Y-23574752D01*
X18479748Y-23574756D01*
X18277592Y-23640441D01*
X18277581Y-23640445D01*
X18088187Y-23736947D01*
X17916210Y-23861893D01*
X17765893Y-24012210D01*
X17673828Y-24138929D01*
X17643600Y-24180536D01*
X17640947Y-24184187D01*
X17544445Y-24373581D01*
X17544441Y-24373592D01*
X17478756Y-24575748D01*
X17478752Y-24575765D01*
X17445500Y-24785713D01*
X15500500Y-24785713D01*
X15500500Y-19419547D01*
X49717398Y-19419547D01*
X49717398Y-19624248D01*
X49749420Y-19826427D01*
X49749421Y-19826434D01*
X49812675Y-20021110D01*
X49812683Y-20021129D01*
X49905604Y-20203497D01*
X49905610Y-20203507D01*
X49905611Y-20203508D01*
X50025932Y-20369117D01*
X50170679Y-20513864D01*
X50336288Y-20634185D01*
X50336298Y-20634191D01*
X50518666Y-20727112D01*
X50518673Y-20727114D01*
X50518679Y-20727118D01*
X50713364Y-20790375D01*
X50915546Y-20822398D01*
X50915547Y-20822398D01*
X51120249Y-20822398D01*
X51120250Y-20822398D01*
X51322432Y-20790375D01*
X51517117Y-20727118D01*
X51517129Y-20727112D01*
X51699497Y-20634191D01*
X51699501Y-20634188D01*
X51699508Y-20634185D01*
X51865117Y-20513864D01*
X52009864Y-20369117D01*
X52130185Y-20203508D01*
X52223118Y-20021117D01*
X52286375Y-19826432D01*
X52318398Y-19624250D01*
X52318398Y-19419546D01*
X52286375Y-19217364D01*
X52223118Y-19022679D01*
X52223114Y-19022673D01*
X52223112Y-19022666D01*
X52130191Y-18840298D01*
X52130185Y-18840288D01*
X52055493Y-18737483D01*
X52009864Y-18674679D01*
X51865117Y-18529932D01*
X51699508Y-18409611D01*
X51699509Y-18409611D01*
X51699507Y-18409610D01*
X51699497Y-18409604D01*
X51517129Y-18316683D01*
X51517110Y-18316675D01*
X51322434Y-18253421D01*
X51322427Y-18253420D01*
X51207633Y-18235238D01*
X51120250Y-18221398D01*
X50915546Y-18221398D01*
X50854533Y-18231061D01*
X50713368Y-18253420D01*
X50713361Y-18253421D01*
X50518685Y-18316675D01*
X50518666Y-18316683D01*
X50336298Y-18409604D01*
X50336288Y-18409610D01*
X50170681Y-18529930D01*
X50170677Y-18529933D01*
X50025933Y-18674677D01*
X50025930Y-18674681D01*
X49905610Y-18840288D01*
X49905604Y-18840298D01*
X49812683Y-19022666D01*
X49812675Y-19022685D01*
X49749421Y-19217361D01*
X49749420Y-19217368D01*
X49717398Y-19419547D01*
X15500500Y-19419547D01*
X15500500Y-17895547D01*
X52765398Y-17895547D01*
X52765398Y-18100248D01*
X52797420Y-18302427D01*
X52797421Y-18302434D01*
X52860675Y-18497110D01*
X52860683Y-18497129D01*
X52953604Y-18679497D01*
X52953610Y-18679507D01*
X52995731Y-18737482D01*
X53073932Y-18845117D01*
X53218679Y-18989864D01*
X53345530Y-19082026D01*
X53384288Y-19110185D01*
X53384298Y-19110191D01*
X53566666Y-19203112D01*
X53566673Y-19203114D01*
X53566679Y-19203118D01*
X53761364Y-19266375D01*
X53963546Y-19298398D01*
X53963547Y-19298398D01*
X54168249Y-19298398D01*
X54168250Y-19298398D01*
X54370432Y-19266375D01*
X54565117Y-19203118D01*
X54640028Y-19164949D01*
X54747497Y-19110191D01*
X54747501Y-19110188D01*
X54747508Y-19110185D01*
X54913117Y-18989864D01*
X55057864Y-18845117D01*
X55178185Y-18679508D01*
X55179022Y-18677867D01*
X55271112Y-18497129D01*
X55271112Y-18497127D01*
X55271118Y-18497117D01*
X55334375Y-18302432D01*
X55366398Y-18100250D01*
X55366398Y-17895546D01*
X55334375Y-17693364D01*
X55271118Y-17498679D01*
X55271114Y-17498673D01*
X55271112Y-17498666D01*
X55178191Y-17316298D01*
X55178185Y-17316288D01*
X55061372Y-17155508D01*
X55057864Y-17150679D01*
X54913117Y-17005932D01*
X54747508Y-16885611D01*
X54747509Y-16885611D01*
X54747507Y-16885610D01*
X54747497Y-16885604D01*
X54565129Y-16792683D01*
X54565110Y-16792675D01*
X54370434Y-16729421D01*
X54370427Y-16729420D01*
X54255633Y-16711238D01*
X54168250Y-16697398D01*
X53963546Y-16697398D01*
X53902533Y-16707061D01*
X53761368Y-16729420D01*
X53761361Y-16729421D01*
X53566685Y-16792675D01*
X53566666Y-16792683D01*
X53384298Y-16885604D01*
X53384288Y-16885610D01*
X53218681Y-17005930D01*
X53218677Y-17005933D01*
X53073933Y-17150677D01*
X53073930Y-17150681D01*
X52953610Y-17316288D01*
X52953604Y-17316298D01*
X52860683Y-17498666D01*
X52860675Y-17498685D01*
X52797421Y-17693361D01*
X52797420Y-17693368D01*
X52765398Y-17895547D01*
X15500500Y-17895547D01*
X15500500Y-16011176D01*
X15501751Y-15988898D01*
X15507924Y-15934108D01*
X15510513Y-15911127D01*
X15520425Y-15867695D01*
X15542564Y-15804425D01*
X15561888Y-15764300D01*
X15597552Y-15707541D01*
X15625325Y-15672716D01*
X15672716Y-15625325D01*
X15707541Y-15597552D01*
X15764300Y-15561888D01*
X15804425Y-15542564D01*
X15867695Y-15520425D01*
X15911127Y-15510513D01*
X15962552Y-15504719D01*
X15988899Y-15501751D01*
X16011177Y-15500500D01*
X16065892Y-15500500D01*
X55571545Y-15500500D01*
X55657888Y-15520207D01*
G37*
G04 #@! TD.AperFunction*
M02*
