G04 #@! TF.GenerationSoftware,KiCad,Pcbnew,10.0.0*
G04 #@! TF.CreationDate,2026-04-10T15:11:57+08:00*
G04 #@! TF.ProjectId,pcb,7063622e-6b69-4636-9164-5f7063625858,rev?*
G04 #@! TF.SameCoordinates,Original*
G04 #@! TF.FileFunction,Copper,L1,Top*
G04 #@! TF.FilePolarity,Positive*
%FSLAX46Y46*%
G04 Gerber Fmt 4.6, Leading zero omitted, Abs format (unit mm)*
G04 Created by KiCad (PCBNEW 10.0.0) date 2026-04-10 15:11:57*
%MOMM*%
%LPD*%
G01*
G04 APERTURE LIST*
G04 #@! TA.AperFunction,ComponentPad*
%ADD10C,1.600000*%
G04 #@! TD*
G04 #@! TA.AperFunction,ComponentPad*
%ADD11R,1.700000X1.700000*%
G04 #@! TD*
G04 #@! TA.AperFunction,ComponentPad*
%ADD12C,1.700000*%
G04 #@! TD*
G04 #@! TA.AperFunction,Conductor*
%ADD13C,0.350000*%
G04 #@! TD*
G04 #@! TA.AperFunction,Conductor*
%ADD14C,0.609600*%
G04 #@! TD*
G04 APERTURE END LIST*
D10*
X48768000Y-38608000D03*
X38608000Y-38608000D03*
D11*
X39116000Y-29972000D03*
D12*
X36576000Y-29972000D03*
X34036000Y-29972000D03*
X31496000Y-29972000D03*
X28956000Y-29972000D03*
X26416000Y-29972000D03*
X23876000Y-29972000D03*
X21336000Y-29972000D03*
X18796000Y-29972000D03*
D10*
X54065898Y-17997898D03*
X61250101Y-25182103D03*
D11*
X39116000Y-24892000D03*
D12*
X36576000Y-24892000D03*
X34036000Y-24892000D03*
X31496000Y-24892000D03*
X28956000Y-24892000D03*
X26416000Y-24892000D03*
X23876000Y-24892000D03*
X21336000Y-24892000D03*
X18796000Y-24892000D03*
D10*
X43352592Y-23876000D03*
X50536795Y-31060205D03*
X51308000Y-41656000D03*
X41148000Y-41656000D03*
X65532000Y-38608000D03*
X55372000Y-38608000D03*
D11*
X70612000Y-29464000D03*
D12*
X70612000Y-32004000D03*
X70612000Y-34544000D03*
X70612000Y-37084000D03*
D10*
X56859898Y-16473898D03*
X64044103Y-23658101D03*
D11*
X70612000Y-17780000D03*
D12*
X70612000Y-20320000D03*
X70612000Y-22860000D03*
X70612000Y-25400000D03*
D10*
X37910196Y-43373524D03*
X30725992Y-36189320D03*
X24420103Y-43724103D03*
X17235898Y-36539898D03*
X28992103Y-43724102D03*
X21807898Y-36539897D03*
X55118000Y-35560000D03*
X44958000Y-35560000D03*
D11*
X39116000Y-27432000D03*
D12*
X36576000Y-27432000D03*
X34036000Y-27432000D03*
X31496000Y-27432000D03*
D11*
X39116000Y-32512000D03*
D12*
X36576000Y-32512000D03*
X34036000Y-32512000D03*
X31496000Y-32512000D03*
X28956000Y-32512000D03*
X26416000Y-32512000D03*
X23876000Y-32512000D03*
X21336000Y-32512000D03*
X18796000Y-32512000D03*
D10*
X33564103Y-43724102D03*
X26379898Y-36539897D03*
D11*
X45212000Y-47244000D03*
D12*
X47752000Y-47244000D03*
X50292000Y-47244000D03*
X52832000Y-47244000D03*
X55372000Y-47244000D03*
X57912000Y-47244000D03*
X60452000Y-47244000D03*
X62992000Y-47244000D03*
X65532000Y-47244000D03*
D10*
X51017898Y-19521898D03*
X58202101Y-26706103D03*
X47969898Y-23876000D03*
X55154101Y-31060205D03*
D13*
X48768000Y-38608000D02*
X51816000Y-38608000D01*
X51816000Y-38608000D02*
X60452000Y-47244000D01*
X38608000Y-38608000D02*
X37592000Y-38608000D01*
X37592000Y-38608000D02*
X31496000Y-32512000D01*
D14*
X39611200Y-25387200D02*
X48595858Y-25387200D01*
X39698400Y-29972000D02*
X40677200Y-28993200D01*
X54425058Y-19558000D02*
X68834000Y-19558000D01*
X40677200Y-24993600D02*
X40575600Y-24892000D01*
X40677200Y-28993200D02*
X40677200Y-24993600D01*
X68834000Y-19558000D02*
X70612000Y-17780000D01*
X39624000Y-29464000D02*
X70612000Y-29464000D01*
X40575600Y-24892000D02*
X39116000Y-24892000D01*
X39116000Y-24892000D02*
X39611200Y-25387200D01*
X39116000Y-29972000D02*
X39624000Y-29464000D01*
X48595858Y-25387200D02*
X54425058Y-19558000D01*
X39116000Y-29972000D02*
X39698400Y-29972000D01*
D13*
X18379670Y-28194000D02*
X20066000Y-28194000D01*
X17018000Y-36322000D02*
X17018000Y-29555670D01*
X17018000Y-29555670D02*
X18379670Y-28194000D01*
X21336000Y-29464000D02*
X21336000Y-29972000D01*
X20066000Y-28194000D02*
X21336000Y-29464000D01*
X17235898Y-36539898D02*
X17018000Y-36322000D01*
X28230102Y-17997898D02*
X21336000Y-24892000D01*
X54065898Y-17997898D02*
X28230102Y-17997898D01*
X68289897Y-25182103D02*
X70612000Y-22860000D01*
X61250102Y-25182103D02*
X68289897Y-25182103D01*
X30771999Y-23076001D02*
X28956000Y-24892000D01*
X43352592Y-23876000D02*
X42552593Y-23076001D01*
X42552593Y-23076001D02*
X30771999Y-23076001D01*
X28886799Y-22421201D02*
X26416000Y-24892000D01*
X47969898Y-23876000D02*
X46515099Y-22421201D01*
X46515099Y-22421201D02*
X28886799Y-22421201D01*
X29246102Y-19521898D02*
X23876000Y-24892000D01*
X51017898Y-19521898D02*
X29246102Y-19521898D01*
X56859898Y-16473898D02*
X27214102Y-16473898D01*
X27214102Y-16473898D02*
X18796000Y-24892000D01*
X50536796Y-31060205D02*
X53344191Y-31060205D01*
X59367986Y-37084000D02*
X70612000Y-37084000D01*
X53344191Y-31060205D02*
X59367986Y-37084000D01*
X52324000Y-41656000D02*
X57912000Y-47244000D01*
X51308000Y-41656000D02*
X52324000Y-41656000D01*
X38100000Y-41656000D02*
X28956000Y-32512000D01*
X41148000Y-41656000D02*
X38100000Y-41656000D01*
X65532000Y-38608000D02*
X65532000Y-47244000D01*
X55372000Y-38608000D02*
X51044200Y-34280200D01*
X38344200Y-34280200D02*
X36576000Y-32512000D01*
X51044200Y-34280200D02*
X38344200Y-34280200D01*
X70612000Y-20320000D02*
X72043400Y-21751400D01*
X72043400Y-21751400D02*
X72043400Y-30572600D01*
X72043400Y-30572600D02*
X70612000Y-32004000D01*
X67273898Y-23658102D02*
X70612000Y-20320000D01*
X64044103Y-23658102D02*
X67273898Y-23658102D01*
X67128205Y-31060205D02*
X70612000Y-34544000D01*
X55154102Y-31060205D02*
X67128205Y-31060205D01*
X69305897Y-26706103D02*
X70612000Y-25400000D01*
X58202102Y-26706103D02*
X69305897Y-26706103D01*
X51852102Y-43724102D02*
X55372000Y-47244000D01*
X38136103Y-43724102D02*
X51852102Y-43724102D01*
X26924001Y-32512000D02*
X26416000Y-32512000D01*
X30951898Y-36539897D02*
X26924001Y-32512000D01*
X29464000Y-48768000D02*
X46228000Y-48768000D01*
X24420103Y-43724103D02*
X29464000Y-48768000D01*
X46228000Y-48768000D02*
X47752000Y-47244000D01*
X48768000Y-45720000D02*
X50292000Y-47244000D01*
X28992103Y-43724102D02*
X30988001Y-45720000D01*
X30988001Y-45720000D02*
X48768000Y-45720000D01*
X21807898Y-36539897D02*
X21807898Y-32983898D01*
X21807898Y-32983898D02*
X21336000Y-32512000D01*
X55118000Y-35560000D02*
X62992000Y-43434000D01*
X62992000Y-43434000D02*
X62992000Y-47244000D01*
X44958000Y-35560000D02*
X37084000Y-35560000D01*
X37084000Y-35560000D02*
X34036000Y-32512000D01*
X26379898Y-35015898D02*
X23876000Y-32512000D01*
X26379898Y-36539897D02*
X26379898Y-35015898D01*
X50653200Y-45065200D02*
X52832000Y-47244000D01*
X33564103Y-43724102D02*
X34905201Y-45065200D01*
X34905201Y-45065200D02*
X50653200Y-45065200D01*
G04 #@! TA.AperFunction,Conductor*
G36*
X34847913Y-32269286D02*
G01*
X34853304Y-32275392D01*
X35356194Y-33580344D01*
X35355972Y-33589296D01*
X35353550Y-33592824D01*
X35116824Y-33829550D01*
X35108551Y-33832977D01*
X35104344Y-33832194D01*
X33799392Y-33329304D01*
X33792904Y-33323132D01*
X33792399Y-33315005D01*
X34033479Y-32517293D01*
X34039153Y-32510366D01*
X34041290Y-32509480D01*
X34839004Y-32268399D01*
X34847913Y-32269286D01*
G37*
G04 #@! TD.AperFunction*
G04 #@! TA.AperFunction,Conductor*
G36*
X57462426Y-46162261D02*
G01*
X57464798Y-46163175D01*
X58146435Y-46425858D01*
X58150289Y-46428295D01*
X58151766Y-46429701D01*
X58155379Y-46437449D01*
X58155469Y-46438893D01*
X58154992Y-46443006D01*
X57915193Y-47236477D01*
X57913045Y-47240505D01*
X57910842Y-47243195D01*
X57905175Y-47246982D01*
X57111223Y-47486927D01*
X57106683Y-47487369D01*
X57104657Y-47487168D01*
X57097045Y-47483268D01*
X57096083Y-47482178D01*
X57093938Y-47478643D01*
X57001473Y-47238705D01*
X56592640Y-46177822D01*
X56591862Y-46173330D01*
X56591939Y-46170241D01*
X56595361Y-46162262D01*
X56829532Y-45928091D01*
X56833322Y-45925558D01*
X56836176Y-45924376D01*
X56844859Y-45924269D01*
X57462426Y-46162261D01*
G37*
G04 #@! TD.AperFunction*
G04 #@! TA.AperFunction,Conductor*
G36*
X58589105Y-26004869D02*
G01*
X59791218Y-26528043D01*
X59797436Y-26534487D01*
X59798249Y-26538771D01*
X59798249Y-26873434D01*
X59794822Y-26881707D01*
X59791218Y-26884162D01*
X58589105Y-27407336D01*
X58580152Y-27407495D01*
X58574124Y-27402135D01*
X58204063Y-26711630D01*
X58203175Y-26702719D01*
X58204063Y-26700576D01*
X58296528Y-26528043D01*
X58574124Y-26010069D01*
X58581052Y-26004397D01*
X58589105Y-26004869D01*
G37*
G04 #@! TD.AperFunction*
G04 #@! TA.AperFunction,Conductor*
G36*
X49155004Y-37906766D02*
G01*
X50357117Y-38429940D01*
X50363335Y-38436384D01*
X50364148Y-38440668D01*
X50364148Y-38775331D01*
X50360721Y-38783604D01*
X50357117Y-38786059D01*
X49155004Y-39309233D01*
X49146051Y-39309392D01*
X49140023Y-39304032D01*
X48769962Y-38613527D01*
X48769074Y-38604616D01*
X48769962Y-38602473D01*
X48862427Y-38429940D01*
X49140023Y-37911966D01*
X49146951Y-37906294D01*
X49155004Y-37906766D01*
G37*
G04 #@! TD.AperFunction*
G04 #@! TA.AperFunction,Conductor*
G36*
X22413296Y-23572027D02*
G01*
X22416824Y-23574449D01*
X22653550Y-23811175D01*
X22656977Y-23819448D01*
X22656194Y-23823655D01*
X22153304Y-25128607D01*
X22147132Y-25135095D01*
X22139002Y-25135600D01*
X21341294Y-24894520D01*
X21334366Y-24888846D01*
X21333479Y-24886705D01*
X21092399Y-24088994D01*
X21093286Y-24080086D01*
X21099390Y-24074696D01*
X22404344Y-23571805D01*
X22413296Y-23572027D01*
G37*
G04 #@! TD.AperFunction*
G04 #@! TA.AperFunction,Conductor*
G36*
X37383341Y-32268830D02*
G01*
X37390953Y-32272730D01*
X37391915Y-32273820D01*
X37392792Y-32276378D01*
X37393097Y-32276261D01*
X37894831Y-33576809D01*
X37895356Y-33578170D01*
X37896136Y-33582671D01*
X37896059Y-33585756D01*
X37892636Y-33593737D01*
X37658469Y-33827904D01*
X37654674Y-33830440D01*
X37651823Y-33831621D01*
X37643138Y-33831729D01*
X36341563Y-33330140D01*
X36337705Y-33327699D01*
X36336229Y-33326295D01*
X36332619Y-33318549D01*
X36332529Y-33317104D01*
X36333005Y-33312998D01*
X36572807Y-32519515D01*
X36574953Y-32515493D01*
X36577159Y-32512800D01*
X36582821Y-32509017D01*
X37376782Y-32269070D01*
X37381317Y-32268629D01*
X37383341Y-32268830D01*
G37*
G04 #@! TD.AperFunction*
G04 #@! TA.AperFunction,Conductor*
G36*
X71423913Y-20077286D02*
G01*
X71429304Y-20083392D01*
X71932194Y-21388344D01*
X71931972Y-21397296D01*
X71929550Y-21400824D01*
X71692824Y-21637550D01*
X71684551Y-21640977D01*
X71680344Y-21640194D01*
X70375392Y-21137304D01*
X70368904Y-21131132D01*
X70368399Y-21123005D01*
X70609479Y-20325293D01*
X70615153Y-20318366D01*
X70617290Y-20317480D01*
X71415004Y-20076399D01*
X71423913Y-20077286D01*
G37*
G04 #@! TD.AperFunction*
G04 #@! TA.AperFunction,Conductor*
G36*
X27171503Y-32120189D02*
G01*
X27931730Y-33269544D01*
X27933436Y-33278335D01*
X27930245Y-33284272D01*
X27693552Y-33520965D01*
X27685279Y-33524392D01*
X27683849Y-33524304D01*
X26344007Y-33359301D01*
X26336215Y-33354889D01*
X26333792Y-33346555D01*
X26414684Y-32517532D01*
X26418898Y-32509632D01*
X26420825Y-32508344D01*
X27156242Y-32116318D01*
X27165154Y-32115452D01*
X27171503Y-32120189D01*
G37*
G04 #@! TD.AperFunction*
G04 #@! TA.AperFunction,Conductor*
G36*
X29756243Y-43495880D02*
G01*
X29761603Y-43501908D01*
X30241686Y-44721869D01*
X30241527Y-44730822D01*
X30239072Y-44734426D01*
X30002427Y-44971071D01*
X29994154Y-44974498D01*
X29989870Y-44973685D01*
X29983227Y-44971071D01*
X29713713Y-44865010D01*
X28769909Y-44493602D01*
X28763465Y-44487384D01*
X28762993Y-44479333D01*
X28989582Y-43729395D01*
X28995255Y-43722469D01*
X28997393Y-43721582D01*
X29747334Y-43494992D01*
X29756243Y-43495880D01*
G37*
G04 #@! TD.AperFunction*
G04 #@! TA.AperFunction,Conductor*
G36*
X22169846Y-32594112D02*
G01*
X22177738Y-32598342D01*
X22180327Y-32606914D01*
X22180279Y-32607325D01*
X21984270Y-34053922D01*
X21979763Y-34061660D01*
X21972676Y-34064051D01*
X21637951Y-34064051D01*
X21629678Y-34060624D01*
X21629434Y-34060373D01*
X20687522Y-33060344D01*
X20684344Y-33051972D01*
X20688017Y-33043805D01*
X20688594Y-33043297D01*
X21332245Y-32514086D01*
X21340810Y-32511479D01*
X22169846Y-32594112D01*
G37*
G04 #@! TD.AperFunction*
G04 #@! TA.AperFunction,Conductor*
G36*
X63167664Y-45551520D02*
G01*
X63170086Y-45555048D01*
X63737228Y-46833384D01*
X63737450Y-46842336D01*
X63732059Y-46848442D01*
X62997526Y-47242038D01*
X62988615Y-47242925D01*
X62986474Y-47242038D01*
X62251940Y-46848442D01*
X62246266Y-46841514D01*
X62246770Y-46833386D01*
X62813914Y-45555047D01*
X62820402Y-45548876D01*
X62824609Y-45548093D01*
X63159391Y-45548093D01*
X63167664Y-45551520D01*
G37*
G04 #@! TD.AperFunction*
G04 #@! TA.AperFunction,Conductor*
G36*
X44585976Y-34863967D02*
G01*
X44956037Y-35554473D01*
X44956925Y-35563384D01*
X44956037Y-35565527D01*
X44585976Y-36256032D01*
X44579048Y-36261705D01*
X44570995Y-36261233D01*
X43368883Y-35738059D01*
X43362665Y-35731615D01*
X43361852Y-35727331D01*
X43361852Y-35392668D01*
X43365279Y-35384395D01*
X43368883Y-35381940D01*
X44559045Y-34863967D01*
X44570995Y-34858765D01*
X44579948Y-34858607D01*
X44585976Y-34863967D01*
G37*
G04 #@! TD.AperFunction*
G04 #@! TA.AperFunction,Conductor*
G36*
X34328243Y-43495880D02*
G01*
X34333603Y-43501908D01*
X34813686Y-44721869D01*
X34813527Y-44730822D01*
X34811072Y-44734426D01*
X34574427Y-44971071D01*
X34566154Y-44974498D01*
X34561870Y-44973685D01*
X34555227Y-44971071D01*
X34285713Y-44865010D01*
X33341909Y-44493602D01*
X33335465Y-44487384D01*
X33334993Y-44479333D01*
X33561582Y-43729395D01*
X33567255Y-43722469D01*
X33569393Y-43721582D01*
X34319334Y-43494992D01*
X34328243Y-43495880D01*
G37*
G04 #@! TD.AperFunction*
G04 #@! TA.AperFunction,Conductor*
G36*
X69811001Y-25157005D02*
G01*
X70604479Y-25396806D01*
X70608505Y-25398953D01*
X70611195Y-25401156D01*
X70615424Y-25409049D01*
X70614536Y-25411985D01*
X70854919Y-26200749D01*
X70855369Y-26205315D01*
X70855168Y-26207340D01*
X70851268Y-26214953D01*
X70850178Y-26215915D01*
X70846643Y-26218060D01*
X69545826Y-26719357D01*
X69541327Y-26720136D01*
X69538242Y-26720059D01*
X69530261Y-26716636D01*
X69296094Y-26482469D01*
X69293558Y-26478674D01*
X69292377Y-26475823D01*
X69292269Y-26467139D01*
X69793860Y-25165558D01*
X69796297Y-25161706D01*
X69797702Y-25160229D01*
X69805447Y-25156619D01*
X69806894Y-25156529D01*
X69811001Y-25157005D01*
G37*
G04 #@! TD.AperFunction*
G04 #@! TA.AperFunction,Conductor*
G36*
X24687913Y-32269286D02*
G01*
X24693304Y-32275392D01*
X25196194Y-33580344D01*
X25195972Y-33589296D01*
X25193550Y-33592824D01*
X24956824Y-33829550D01*
X24948551Y-33832977D01*
X24944344Y-33832194D01*
X23639392Y-33329304D01*
X23632904Y-33323132D01*
X23632399Y-33315005D01*
X23873479Y-32517293D01*
X23879153Y-32510366D01*
X23881290Y-32509480D01*
X24679004Y-32268399D01*
X24687913Y-32269286D01*
G37*
G04 #@! TD.AperFunction*
G04 #@! TA.AperFunction,Conductor*
G36*
X25184243Y-43495881D02*
G01*
X25189603Y-43501909D01*
X25669686Y-44721870D01*
X25669527Y-44730823D01*
X25667072Y-44734427D01*
X25430427Y-44971072D01*
X25422154Y-44974499D01*
X25417870Y-44973686D01*
X25411227Y-44971072D01*
X25141713Y-44865011D01*
X24197909Y-44493603D01*
X24191465Y-44487385D01*
X24190993Y-44479334D01*
X24417582Y-43729396D01*
X24423255Y-43722470D01*
X24425393Y-43721583D01*
X25175334Y-43494993D01*
X25184243Y-43495881D01*
G37*
G04 #@! TD.AperFunction*
G04 #@! TA.AperFunction,Conductor*
G36*
X54303655Y-45923805D02*
G01*
X54924798Y-46163175D01*
X55608607Y-46426695D01*
X55615095Y-46432867D01*
X55615600Y-46440997D01*
X55374520Y-47238705D01*
X55368846Y-47245633D01*
X55366705Y-47246520D01*
X54568997Y-47487600D01*
X54560086Y-47486713D01*
X54554695Y-47480607D01*
X54051805Y-46175655D01*
X54052027Y-46166703D01*
X54054446Y-46163178D01*
X54291176Y-45926448D01*
X54299448Y-45923022D01*
X54303655Y-45923805D01*
G37*
G04 #@! TD.AperFunction*
G04 #@! TA.AperFunction,Conductor*
G36*
X59383655Y-45923805D02*
G01*
X60004798Y-46163175D01*
X60688607Y-46426695D01*
X60695095Y-46432867D01*
X60695600Y-46440997D01*
X60454520Y-47238705D01*
X60448846Y-47245633D01*
X60446705Y-47246520D01*
X59648997Y-47487600D01*
X59640086Y-47486713D01*
X59634695Y-47480607D01*
X59131805Y-46175655D01*
X59132027Y-46166703D01*
X59134446Y-46163178D01*
X59371176Y-45926448D01*
X59379448Y-45923022D01*
X59383655Y-45923805D01*
G37*
G04 #@! TD.AperFunction*
G04 #@! TA.AperFunction,Conductor*
G36*
X38374048Y-37846326D02*
G01*
X38378906Y-37852759D01*
X38606883Y-38602709D01*
X38606011Y-38611621D01*
X38604724Y-38613546D01*
X38108117Y-39217130D01*
X38100214Y-39221341D01*
X38091648Y-39218731D01*
X38091412Y-39218532D01*
X37067511Y-38329748D01*
X37063510Y-38321736D01*
X37066345Y-38313242D01*
X37066893Y-38312654D01*
X37303086Y-38076461D01*
X37308880Y-38073302D01*
X38365238Y-37844727D01*
X38374048Y-37846326D01*
G37*
G04 #@! TD.AperFunction*
G04 #@! TA.AperFunction,Conductor*
G36*
X30033296Y-23572027D02*
G01*
X30036824Y-23574449D01*
X30273550Y-23811175D01*
X30276977Y-23819448D01*
X30276194Y-23823655D01*
X29773304Y-25128607D01*
X29767132Y-25135095D01*
X29759002Y-25135600D01*
X28961294Y-24894520D01*
X28954366Y-24888846D01*
X28953479Y-24886705D01*
X28712399Y-24088994D01*
X28713286Y-24080086D01*
X28719390Y-24074696D01*
X30024344Y-23571805D01*
X30033296Y-23572027D01*
G37*
G04 #@! TD.AperFunction*
G04 #@! TA.AperFunction,Conductor*
G36*
X70606705Y-22857479D02*
G01*
X70613633Y-22863153D01*
X70614520Y-22865294D01*
X70855600Y-23663002D01*
X70854713Y-23671913D01*
X70848607Y-23677304D01*
X69543655Y-24180194D01*
X69534703Y-24179972D01*
X69531175Y-24177550D01*
X69294449Y-23940824D01*
X69291022Y-23932551D01*
X69291805Y-23928344D01*
X69794696Y-22623390D01*
X69800867Y-22616904D01*
X69808994Y-22616399D01*
X70606705Y-22857479D01*
G37*
G04 #@! TD.AperFunction*
G04 #@! TA.AperFunction,Conductor*
G36*
X55592029Y-37837647D02*
G01*
X55595862Y-37840110D01*
X55597349Y-37841544D01*
X55600904Y-37849277D01*
X55600987Y-37850692D01*
X55600507Y-37854761D01*
X55375193Y-38600476D01*
X55373045Y-38604505D01*
X55370842Y-38607195D01*
X55365174Y-38610982D01*
X54618997Y-38836436D01*
X54614453Y-38836878D01*
X54612405Y-38836674D01*
X54604822Y-38832805D01*
X54603875Y-38831741D01*
X54601737Y-38828257D01*
X54512977Y-38602704D01*
X54123268Y-37612395D01*
X54122457Y-37607905D01*
X54122511Y-37604832D01*
X54125935Y-37596769D01*
X54360032Y-37362672D01*
X54363825Y-37360138D01*
X54366667Y-37358962D01*
X54375425Y-37358886D01*
X55592029Y-37837647D01*
G37*
G04 #@! TD.AperFunction*
G04 #@! TA.AperFunction,Conductor*
G36*
X24949756Y-23571939D02*
G01*
X24957737Y-23575362D01*
X25191904Y-23809529D01*
X25194440Y-23813324D01*
X25195621Y-23816175D01*
X25195729Y-23824860D01*
X24694140Y-25126435D01*
X24691701Y-25130292D01*
X24690299Y-25131766D01*
X24682549Y-25135379D01*
X24681105Y-25135469D01*
X24676992Y-25134992D01*
X23883521Y-24895193D01*
X23879493Y-24893045D01*
X23876803Y-24890842D01*
X23873017Y-24885176D01*
X23633070Y-24091216D01*
X23632628Y-24086685D01*
X23632831Y-24084652D01*
X23636730Y-24077044D01*
X23637822Y-24076080D01*
X23641349Y-24073940D01*
X24942176Y-23572640D01*
X24946667Y-23571862D01*
X24949756Y-23571939D01*
G37*
G04 #@! TD.AperFunction*
G04 #@! TA.AperFunction,Conductor*
G36*
X53693874Y-17301865D02*
G01*
X54063935Y-17992371D01*
X54064823Y-18001282D01*
X54063935Y-18003425D01*
X53693874Y-18693930D01*
X53686946Y-18699603D01*
X53678893Y-18699131D01*
X52476781Y-18175957D01*
X52470563Y-18169513D01*
X52469750Y-18165229D01*
X52469750Y-17830566D01*
X52473177Y-17822293D01*
X52476781Y-17819838D01*
X53666943Y-17301865D01*
X53678893Y-17296663D01*
X53687846Y-17296505D01*
X53693874Y-17301865D01*
G37*
G04 #@! TD.AperFunction*
G04 #@! TA.AperFunction,Conductor*
G36*
X46972126Y-22626415D02*
G01*
X48192091Y-23106499D01*
X48198535Y-23112717D01*
X48199007Y-23120770D01*
X47972418Y-23870704D01*
X47966745Y-23877632D01*
X47964602Y-23878520D01*
X47214668Y-24105109D01*
X47205757Y-24104221D01*
X47200397Y-24098193D01*
X47110875Y-23870704D01*
X46720314Y-22878230D01*
X46720473Y-22869279D01*
X46722925Y-22865678D01*
X46959574Y-22629029D01*
X46967846Y-22625603D01*
X46972126Y-22626415D01*
G37*
G04 #@! TD.AperFunction*
G04 #@! TA.AperFunction,Conductor*
G36*
X50923799Y-30358971D02*
G01*
X52125912Y-30882145D01*
X52132130Y-30888589D01*
X52132943Y-30892873D01*
X52132943Y-31227536D01*
X52129516Y-31235809D01*
X52125912Y-31238264D01*
X50923799Y-31761438D01*
X50914846Y-31761597D01*
X50908818Y-31756237D01*
X50538757Y-31065732D01*
X50537869Y-31056821D01*
X50538757Y-31054678D01*
X50631222Y-30882145D01*
X50908818Y-30364171D01*
X50915746Y-30358499D01*
X50923799Y-30358971D01*
G37*
G04 #@! TD.AperFunction*
G04 #@! TA.AperFunction,Conductor*
G36*
X38424540Y-42761562D02*
G01*
X38428487Y-42763596D01*
X38428951Y-42763961D01*
X39420431Y-43544148D01*
X39423398Y-43547615D01*
X39425228Y-43550874D01*
X39426726Y-43556602D01*
X39426726Y-43887070D01*
X39425834Y-43891551D01*
X39424912Y-43893775D01*
X39419564Y-43899642D01*
X39418749Y-43900072D01*
X39415452Y-43901222D01*
X38003435Y-44166881D01*
X37998869Y-44166834D01*
X37997125Y-44166468D01*
X37989733Y-44161416D01*
X37988998Y-44160291D01*
X37987151Y-44155053D01*
X37961717Y-43900072D01*
X37909909Y-43380674D01*
X37910351Y-43376131D01*
X37911590Y-43372029D01*
X37913751Y-43367983D01*
X38408962Y-42765754D01*
X38412484Y-42762868D01*
X38414128Y-42761991D01*
X38422917Y-42761087D01*
X38424540Y-42761562D01*
G37*
G04 #@! TD.AperFunction*
G04 #@! TA.AperFunction,Conductor*
G36*
X71689296Y-30684027D02*
G01*
X71692824Y-30686449D01*
X71929550Y-30923175D01*
X71932977Y-30931448D01*
X71932194Y-30935655D01*
X71429304Y-32240607D01*
X71423132Y-32247095D01*
X71415002Y-32247600D01*
X70617294Y-32006520D01*
X70610366Y-32000846D01*
X70609479Y-31998705D01*
X70368399Y-31200994D01*
X70369286Y-31192086D01*
X70375390Y-31186696D01*
X71680344Y-30683805D01*
X71689296Y-30684027D01*
G37*
G04 #@! TD.AperFunction*
G04 #@! TA.AperFunction,Conductor*
G36*
X26457482Y-34852825D02*
G01*
X26459760Y-34856043D01*
X27080607Y-36152696D01*
X27081089Y-36161638D01*
X27075582Y-36168061D01*
X26386126Y-36537644D01*
X26377215Y-36538532D01*
X26375081Y-36537648D01*
X26065812Y-36372197D01*
X25684349Y-36168123D01*
X25678671Y-36161199D01*
X25679379Y-36152624D01*
X26204286Y-35090348D01*
X26206497Y-35087264D01*
X26440937Y-34852824D01*
X26449209Y-34849398D01*
X26457482Y-34852825D01*
G37*
G04 #@! TD.AperFunction*
G04 #@! TA.AperFunction,Conductor*
G36*
X51824351Y-41045268D02*
G01*
X51824587Y-41045467D01*
X52527121Y-41655293D01*
X52848488Y-41934251D01*
X52852489Y-41942263D01*
X52849654Y-41950757D01*
X52849091Y-41951360D01*
X52612915Y-42187536D01*
X52607116Y-42190698D01*
X51550761Y-42419272D01*
X51541951Y-42417673D01*
X51537093Y-42411240D01*
X51394595Y-41942482D01*
X51309116Y-41661289D01*
X51309988Y-41652378D01*
X51311275Y-41650453D01*
X51807882Y-41046869D01*
X51815785Y-41042658D01*
X51824351Y-41045268D01*
G37*
G04 #@! TD.AperFunction*
G04 #@! TA.AperFunction,Conductor*
G36*
X42101050Y-22902763D02*
G01*
X43419813Y-23078361D01*
X43427561Y-23082850D01*
X43429913Y-23091091D01*
X43354198Y-23869761D01*
X43349987Y-23877664D01*
X43348062Y-23878951D01*
X42657185Y-24247709D01*
X42648273Y-24248581D01*
X42641459Y-24243089D01*
X42089297Y-23253658D01*
X42087814Y-23247956D01*
X42087814Y-22914362D01*
X42091241Y-22906089D01*
X42099514Y-22902662D01*
X42101050Y-22902763D01*
G37*
G04 #@! TD.AperFunction*
G04 #@! TA.AperFunction,Conductor*
G36*
X64431107Y-22956867D02*
G01*
X65633220Y-23480042D01*
X65639438Y-23486486D01*
X65640251Y-23490770D01*
X65640251Y-23825433D01*
X65636824Y-23833706D01*
X65633220Y-23836161D01*
X64431107Y-24359334D01*
X64422154Y-24359493D01*
X64416126Y-24354133D01*
X64046065Y-23663628D01*
X64045177Y-23654717D01*
X64046065Y-23652574D01*
X64138530Y-23480042D01*
X64416126Y-22962067D01*
X64423054Y-22956395D01*
X64431107Y-22956867D01*
G37*
G04 #@! TD.AperFunction*
G04 #@! TA.AperFunction,Conductor*
G36*
X65707664Y-45551520D02*
G01*
X65710086Y-45555048D01*
X66277228Y-46833384D01*
X66277450Y-46842336D01*
X66272059Y-46848442D01*
X65537526Y-47242038D01*
X65528615Y-47242925D01*
X65526474Y-47242038D01*
X64791940Y-46848442D01*
X64786266Y-46841514D01*
X64786770Y-46833386D01*
X65353914Y-45555047D01*
X65360402Y-45548876D01*
X65364609Y-45548093D01*
X65699391Y-45548093D01*
X65707664Y-45551520D01*
G37*
G04 #@! TD.AperFunction*
G04 #@! TA.AperFunction,Conductor*
G36*
X61637105Y-24480869D02*
G01*
X62839218Y-25004043D01*
X62845436Y-25010487D01*
X62846249Y-25014771D01*
X62846249Y-25349434D01*
X62842822Y-25357707D01*
X62839218Y-25360162D01*
X61637105Y-25883336D01*
X61628152Y-25883495D01*
X61622124Y-25878135D01*
X61252063Y-25187630D01*
X61251175Y-25178719D01*
X61252063Y-25176576D01*
X61344528Y-25004043D01*
X61622124Y-24486069D01*
X61629052Y-24480397D01*
X61637105Y-24480869D01*
G37*
G04 #@! TD.AperFunction*
G04 #@! TA.AperFunction,Conductor*
G36*
X19869756Y-23571939D02*
G01*
X19877737Y-23575362D01*
X20111904Y-23809529D01*
X20114440Y-23813324D01*
X20115621Y-23816175D01*
X20115729Y-23824860D01*
X19614140Y-25126435D01*
X19611701Y-25130292D01*
X19610299Y-25131766D01*
X19602549Y-25135379D01*
X19601105Y-25135469D01*
X19596992Y-25134992D01*
X18803521Y-24895193D01*
X18799493Y-24893045D01*
X18796803Y-24890842D01*
X18793017Y-24885176D01*
X18553070Y-24091216D01*
X18552628Y-24086685D01*
X18552831Y-24084652D01*
X18556730Y-24077044D01*
X18557822Y-24076080D01*
X18561349Y-24073940D01*
X19862176Y-23572640D01*
X19866667Y-23571862D01*
X19869756Y-23571939D01*
G37*
G04 #@! TD.AperFunction*
G04 #@! TA.AperFunction,Conductor*
G36*
X56487874Y-15777865D02*
G01*
X56857935Y-16468371D01*
X56858823Y-16477282D01*
X56857935Y-16479425D01*
X56487874Y-17169930D01*
X56480946Y-17175603D01*
X56472893Y-17175131D01*
X55270781Y-16651957D01*
X55264563Y-16645513D01*
X55263750Y-16641229D01*
X55263750Y-16306566D01*
X55267177Y-16298293D01*
X55270781Y-16295838D01*
X56460943Y-15777865D01*
X56472893Y-15772663D01*
X56481846Y-15772505D01*
X56487874Y-15777865D01*
G37*
G04 #@! TD.AperFunction*
G04 #@! TA.AperFunction,Conductor*
G36*
X32307913Y-32269286D02*
G01*
X32313304Y-32275392D01*
X32816194Y-33580344D01*
X32815972Y-33589296D01*
X32813550Y-33592824D01*
X32576824Y-33829550D01*
X32568551Y-33832977D01*
X32564344Y-33832194D01*
X31259392Y-33329304D01*
X31252904Y-33323132D01*
X31252399Y-33315005D01*
X31493479Y-32517293D01*
X31499153Y-32510366D01*
X31501290Y-32509480D01*
X32299004Y-32268399D01*
X32307913Y-32269286D01*
G37*
G04 #@! TD.AperFunction*
G04 #@! TA.AperFunction,Conductor*
G36*
X29763341Y-32268830D02*
G01*
X29770953Y-32272730D01*
X29771915Y-32273820D01*
X29772792Y-32276378D01*
X29773097Y-32276261D01*
X30274831Y-33576809D01*
X30275356Y-33578170D01*
X30276136Y-33582671D01*
X30276059Y-33585756D01*
X30272636Y-33593737D01*
X30038469Y-33827904D01*
X30034674Y-33830440D01*
X30031823Y-33831621D01*
X30023138Y-33831729D01*
X28721563Y-33330140D01*
X28717705Y-33327699D01*
X28716229Y-33326295D01*
X28712619Y-33318549D01*
X28712529Y-33317104D01*
X28713005Y-33312998D01*
X28952807Y-32519515D01*
X28954953Y-32515493D01*
X28957159Y-32512800D01*
X28962821Y-32509017D01*
X29756782Y-32269070D01*
X29761317Y-32268629D01*
X29763341Y-32268830D01*
G37*
G04 #@! TD.AperFunction*
G04 #@! TA.AperFunction,Conductor*
G36*
X17194806Y-34974923D02*
G01*
X17196440Y-34976972D01*
X17934766Y-36152166D01*
X17936266Y-36160994D01*
X17931083Y-36168297D01*
X17930386Y-36168702D01*
X17240183Y-36538601D01*
X17231272Y-36539488D01*
X17000445Y-36469166D01*
X16481275Y-36310999D01*
X16474360Y-36305310D01*
X16473415Y-36296665D01*
X16840613Y-34980052D01*
X16846137Y-34973004D01*
X16851883Y-34971496D01*
X17186533Y-34971496D01*
X17194806Y-34974923D01*
G37*
G04 #@! TD.AperFunction*
G04 #@! TA.AperFunction,Conductor*
G36*
X65537527Y-38609962D02*
G01*
X66228032Y-38980023D01*
X66233705Y-38986951D01*
X66233233Y-38995004D01*
X65710060Y-40197117D01*
X65703616Y-40203335D01*
X65699332Y-40204148D01*
X65364668Y-40204148D01*
X65356395Y-40200721D01*
X65353940Y-40197117D01*
X64830766Y-38995004D01*
X64830607Y-38986051D01*
X64835966Y-38980024D01*
X65526473Y-38609961D01*
X65535384Y-38609074D01*
X65537527Y-38609962D01*
G37*
G04 #@! TD.AperFunction*
G04 #@! TA.AperFunction,Conductor*
G36*
X69543655Y-33223805D02*
G01*
X70164798Y-33463175D01*
X70848607Y-33726695D01*
X70855095Y-33732867D01*
X70855600Y-33740997D01*
X70614520Y-34538705D01*
X70608846Y-34545633D01*
X70606705Y-34546520D01*
X69808997Y-34787600D01*
X69800086Y-34786713D01*
X69794695Y-34780607D01*
X69291805Y-33475655D01*
X69292027Y-33466703D01*
X69294446Y-33463178D01*
X69531176Y-33226448D01*
X69539448Y-33223022D01*
X69543655Y-33223805D01*
G37*
G04 #@! TD.AperFunction*
G04 #@! TA.AperFunction,Conductor*
G36*
X70216442Y-36343940D02*
G01*
X70610038Y-37078474D01*
X70610925Y-37087385D01*
X70610038Y-37089526D01*
X70216442Y-37824059D01*
X70209514Y-37829733D01*
X70201384Y-37829228D01*
X68923048Y-37262085D01*
X68916876Y-37255597D01*
X68916093Y-37251390D01*
X68916093Y-36916609D01*
X68919520Y-36908336D01*
X68923046Y-36905915D01*
X70201386Y-36338770D01*
X70210336Y-36338549D01*
X70216442Y-36343940D01*
G37*
G04 #@! TD.AperFunction*
G04 #@! TA.AperFunction,Conductor*
G36*
X52382426Y-46162261D02*
G01*
X52384798Y-46163175D01*
X53066435Y-46425858D01*
X53070289Y-46428295D01*
X53071766Y-46429701D01*
X53075379Y-46437449D01*
X53075469Y-46438893D01*
X53074992Y-46443006D01*
X52835193Y-47236477D01*
X52833045Y-47240505D01*
X52830842Y-47243195D01*
X52825175Y-47246982D01*
X52031223Y-47486927D01*
X52026683Y-47487369D01*
X52024657Y-47487168D01*
X52017045Y-47483268D01*
X52016083Y-47482178D01*
X52013938Y-47478643D01*
X51921473Y-47238705D01*
X51512640Y-46177822D01*
X51511862Y-46173330D01*
X51511939Y-46170241D01*
X51515361Y-46162262D01*
X51749532Y-45928091D01*
X51753322Y-45925558D01*
X51756176Y-45924376D01*
X51764859Y-45924269D01*
X52382426Y-46162261D01*
G37*
G04 #@! TD.AperFunction*
G04 #@! TA.AperFunction,Conductor*
G36*
X27493296Y-23572027D02*
G01*
X27496824Y-23574449D01*
X27733550Y-23811175D01*
X27736977Y-23819448D01*
X27736194Y-23823655D01*
X27233304Y-25128607D01*
X27227132Y-25135095D01*
X27219002Y-25135600D01*
X26421294Y-24894520D01*
X26414366Y-24888846D01*
X26413479Y-24886705D01*
X26172399Y-24088994D01*
X26173286Y-24080086D01*
X26179390Y-24074696D01*
X27484344Y-23571805D01*
X27493296Y-23572027D01*
G37*
G04 #@! TD.AperFunction*
G04 #@! TA.AperFunction,Conductor*
G36*
X29666946Y-35002858D02*
G01*
X30947335Y-35420219D01*
X30954138Y-35426041D01*
X30954908Y-35434727D01*
X30728105Y-36185372D01*
X30722432Y-36192300D01*
X30722408Y-36192313D01*
X30031393Y-36560607D01*
X30022480Y-36561474D01*
X30015565Y-36555785D01*
X30015265Y-36555181D01*
X29493618Y-35423768D01*
X29416049Y-35255527D01*
X29415698Y-35246580D01*
X29418400Y-35242358D01*
X29655049Y-35005709D01*
X29663321Y-35002283D01*
X29666946Y-35002858D01*
G37*
G04 #@! TD.AperFunction*
G04 #@! TA.AperFunction,Conductor*
G36*
X20578454Y-28456269D02*
G01*
X21727810Y-29216496D01*
X21732819Y-29223918D01*
X21731680Y-29231758D01*
X21339655Y-29967174D01*
X21332739Y-29972862D01*
X21330466Y-29973315D01*
X20501446Y-30054207D01*
X20492879Y-30051599D01*
X20488698Y-30043993D01*
X20323694Y-28704148D01*
X20326084Y-28695520D01*
X20327025Y-28694455D01*
X20563727Y-28457753D01*
X20571999Y-28454327D01*
X20578454Y-28456269D01*
G37*
G04 #@! TD.AperFunction*
G04 #@! TA.AperFunction,Conductor*
G36*
X49223655Y-45923805D02*
G01*
X49844798Y-46163175D01*
X50528607Y-46426695D01*
X50535095Y-46432867D01*
X50535600Y-46440997D01*
X50294520Y-47238705D01*
X50288846Y-47245633D01*
X50286705Y-47246520D01*
X49488997Y-47487600D01*
X49480086Y-47486713D01*
X49474695Y-47480607D01*
X48971805Y-46175655D01*
X48972027Y-46166703D01*
X48974446Y-46163178D01*
X49211176Y-45926448D01*
X49219448Y-45923022D01*
X49223655Y-45923805D01*
G37*
G04 #@! TD.AperFunction*
G04 #@! TA.AperFunction,Conductor*
G36*
X55882140Y-35331778D02*
G01*
X55887500Y-35337806D01*
X56367583Y-36557767D01*
X56367424Y-36566720D01*
X56364969Y-36570324D01*
X56128324Y-36806969D01*
X56120051Y-36810396D01*
X56115767Y-36809583D01*
X56109124Y-36806969D01*
X55839610Y-36700908D01*
X54895806Y-36329500D01*
X54889362Y-36323282D01*
X54888890Y-36315231D01*
X55115479Y-35565293D01*
X55121152Y-35558367D01*
X55123290Y-35557480D01*
X55873231Y-35330890D01*
X55882140Y-35331778D01*
G37*
G04 #@! TD.AperFunction*
G04 #@! TA.AperFunction,Conductor*
G36*
X70606705Y-20317479D02*
G01*
X70613633Y-20323153D01*
X70614520Y-20325294D01*
X70855600Y-21123002D01*
X70854713Y-21131913D01*
X70848607Y-21137304D01*
X69543655Y-21640194D01*
X69534703Y-21639972D01*
X69531175Y-21637550D01*
X69294449Y-21400824D01*
X69291022Y-21392551D01*
X69291805Y-21388344D01*
X69794696Y-20083390D01*
X69800867Y-20076904D01*
X69808994Y-20076399D01*
X70606705Y-20317479D01*
G37*
G04 #@! TD.AperFunction*
G04 #@! TA.AperFunction,Conductor*
G36*
X55541105Y-30358971D02*
G01*
X56743218Y-30882145D01*
X56749436Y-30888589D01*
X56750249Y-30892873D01*
X56750249Y-31227536D01*
X56746822Y-31235809D01*
X56743218Y-31238264D01*
X55541105Y-31761438D01*
X55532152Y-31761597D01*
X55526124Y-31756237D01*
X55156063Y-31065732D01*
X55155175Y-31056821D01*
X55156063Y-31054678D01*
X55248528Y-30882145D01*
X55526124Y-30364171D01*
X55533052Y-30358499D01*
X55541105Y-30358971D01*
G37*
G04 #@! TD.AperFunction*
G04 #@! TA.AperFunction,Conductor*
G36*
X21983503Y-34947176D02*
G01*
X21985958Y-34950780D01*
X22509131Y-36152892D01*
X22509290Y-36161845D01*
X22503930Y-36167873D01*
X21813425Y-36537934D01*
X21804514Y-36538822D01*
X21802371Y-36537934D01*
X21111865Y-36167873D01*
X21106192Y-36160945D01*
X21106664Y-36152892D01*
X21629838Y-34950780D01*
X21636282Y-34944562D01*
X21640566Y-34943749D01*
X21975230Y-34943749D01*
X21983503Y-34947176D01*
G37*
G04 #@! TD.AperFunction*
G04 #@! TA.AperFunction,Conductor*
G36*
X40775976Y-40959967D02*
G01*
X41146037Y-41650473D01*
X41146925Y-41659384D01*
X41146037Y-41661527D01*
X40775976Y-42352032D01*
X40769048Y-42357705D01*
X40760995Y-42357233D01*
X39558883Y-41834059D01*
X39552665Y-41827615D01*
X39551852Y-41823331D01*
X39551852Y-41488668D01*
X39555279Y-41480395D01*
X39558883Y-41477940D01*
X40749045Y-40959967D01*
X40760995Y-40954765D01*
X40769948Y-40954607D01*
X40775976Y-40959967D01*
G37*
G04 #@! TD.AperFunction*
G04 #@! TA.AperFunction,Conductor*
G36*
X50645874Y-18825865D02*
G01*
X51015935Y-19516371D01*
X51016823Y-19525282D01*
X51015935Y-19527425D01*
X50645874Y-20217930D01*
X50638946Y-20223603D01*
X50630893Y-20223131D01*
X49428781Y-19699957D01*
X49422563Y-19693513D01*
X49421750Y-19689229D01*
X49421750Y-19354566D01*
X49425177Y-19346293D01*
X49428781Y-19343838D01*
X50618943Y-18825865D01*
X50630893Y-18820663D01*
X50639846Y-18820505D01*
X50645874Y-18825865D01*
G37*
G04 #@! TD.AperFunction*
G04 #@! TA.AperFunction,Conductor*
G36*
X47746705Y-47241479D02*
G01*
X47753633Y-47247153D01*
X47754520Y-47249294D01*
X47995600Y-48047002D01*
X47994713Y-48055913D01*
X47988607Y-48061304D01*
X46683655Y-48564194D01*
X46674703Y-48563972D01*
X46671175Y-48561550D01*
X46434449Y-48324824D01*
X46431022Y-48316551D01*
X46431805Y-48312344D01*
X46934696Y-47007390D01*
X46940867Y-47000904D01*
X46948994Y-47000399D01*
X47746705Y-47241479D01*
G37*
G04 #@! TD.AperFunction*
M02*
