M48
; DRILL file KiCad 10.0.0 date 2026-04-10T12:57:10
; FORMAT={-:-/ absolute / metric / decimal}
; #@! TF.CreationDate,2026-04-10T12:57:10+08:00
; #@! TF.GenerationSoftware,Kicad,Pcbnew,10.0.0
; #@! TF.FileFunction,MixedPlating,1,2
FMAT,2
METRIC
; #@! TA.AperFunction,Plated,PTH,ComponentDrill
T1C0.800
; #@! TA.AperFunction,Plated,PTH,ComponentDrill
T2C1.000
%
G90
G05
T1
X17.236Y-36.54
X21.808Y-36.54
X24.42Y-43.724
X26.38Y-36.54
X28.992Y-43.724
X30.698Y-36.286
X33.564Y-43.724
X37.882Y-43.47
X38.608Y-38.608
X41.148Y-41.656
X43.353Y-23.876
X44.958Y-35.56
X47.97Y-23.876
X48.768Y-38.608
X50.537Y-31.06
X51.018Y-19.522
X51.308Y-41.656
X54.066Y-17.998
X55.118Y-35.56
X55.154Y-31.06
X55.372Y-38.608
X56.86Y-16.474
X58.202Y-26.706
X61.25Y-25.182
X64.044Y-23.658
X65.532Y-38.608
T2
X18.796Y-24.892
X18.796Y-29.972
X18.796Y-32.512
X21.336Y-24.892
X21.336Y-29.972
X21.336Y-32.512
X23.876Y-24.892
X23.876Y-29.972
X23.876Y-32.512
X26.416Y-24.892
X26.416Y-29.972
X26.416Y-32.512
X28.956Y-24.892
X28.956Y-29.972
X28.956Y-32.512
X31.496Y-24.892
X31.496Y-27.432
X31.496Y-29.972
X31.496Y-32.512
X34.036Y-24.892
X34.036Y-27.432
X34.036Y-29.972
X34.036Y-32.512
X36.576Y-24.892
X36.576Y-27.432
X36.576Y-29.972
X36.576Y-32.512
X39.116Y-24.892
X39.116Y-27.432
X39.116Y-29.972
X39.116Y-32.512
X45.212Y-47.244
X47.752Y-47.244
X50.292Y-47.244
X52.832Y-47.244
X55.372Y-47.244
X57.912Y-47.244
X60.452Y-47.244
X62.992Y-47.244
X65.532Y-47.244
X70.612Y-17.78
X70.612Y-20.32
X70.612Y-22.86
X70.612Y-25.4
X70.612Y-29.464
X70.612Y-32.004
X70.612Y-34.544
X70.612Y-37.084
M30
